<svg width="68" height="32" viewBox="0 0 68 32" fill="none" xmlns="http://www.w3.org/2000/svg">
<g clip-path="url(#clip0_3_867)">
<path d="M25.4279 9.62093C25.4538 9.81798 25.5056 10.0163 25.5007 10.2134C25.471 11.2873 25.4575 12.3639 25.3761 13.434C25.3391 13.9233 25.175 14.4062 25.0393 14.8825C24.8752 15.4606 24.7136 16.0439 24.4904 16.5985C24.0956 17.5798 23.5652 18.4802 22.9694 19.3428C22.2539 20.3776 21.4126 21.2832 20.4899 22.0949C19.7991 22.703 19.0503 23.2432 18.2916 23.7561C17.5268 24.2741 16.7386 24.7661 15.9219 25.1863C15.1041 25.6065 14.2443 25.934 13.3931 26.2772C12.8874 26.4821 12.3619 26.6335 11.8499 26.8188C11.5724 26.9193 11.5366 27.1033 11.6563 27.376C11.8573 27.8379 12.0609 28.3051 12.2003 28.7905C12.3878 29.443 12.521 30.1138 12.6678 30.7793C12.6999 30.9254 12.7122 31.0846 12.6888 31.2308C12.6789 31.2947 12.5432 31.3978 12.4914 31.3835C11.4206 31.0768 10.3943 30.6409 9.41238 30.0994C7.89262 29.2616 6.53322 28.1837 5.30705 26.9193C5.03689 26.6413 4.7433 26.3647 4.55457 26.028C4.13268 25.2776 4.15982 24.4803 4.578 23.7391C5.48345 22.134 6.59736 20.7012 7.91112 19.4511C8.77216 18.6303 9.68377 17.8747 10.7237 17.3149C11.1517 17.0839 11.5748 16.8438 12.0078 16.6246C12.3458 16.4536 12.4309 16.5202 12.4396 16.9025C12.4716 18.3393 12.2607 19.7342 11.829 21.094C11.7574 21.3197 11.6883 21.5468 11.6291 21.7752C11.5613 22.0335 11.7266 22.0518 11.8931 22.0244C12.3088 21.9566 12.7307 21.9083 13.1353 21.7934C14.1444 21.509 15.1571 21.2297 16.144 20.8748C16.9458 20.5877 17.7304 20.2301 18.4915 19.8373C19.4315 19.3519 20.3024 18.7399 21.0956 18.0104C21.7642 17.3958 22.4352 16.7812 22.9249 15.9969C23.4208 15.2022 23.9278 14.4035 24.3103 13.5475C24.8271 12.39 25.2009 11.1673 25.2687 9.86757C25.2724 9.78666 25.3045 9.70836 25.323 9.62746C25.3588 9.62485 25.3946 9.62224 25.4291 9.61963L25.4279 9.62093Z" fill="white" fill-opacity="0.6"/>
<path d="M1.28623 20.5003C1.26447 20.3941 1.2282 20.2891 1.22458 20.183C1.18348 19.0474 1.2693 17.9152 1.5437 16.8139C1.75404 15.9704 2.05141 15.1441 2.4757 14.3612C3.07406 13.2564 3.7921 12.227 4.71443 11.3493C5.47719 10.6235 6.27138 9.90215 7.15502 9.32123C8.20427 8.63188 9.3466 8.06009 10.4829 7.50086C11.2892 7.10483 12.1438 6.78983 12.9948 6.48396C13.6028 6.26597 14.2363 6.10961 14.866 5.95097C15.41 5.81401 15.4451 5.70331 15.2384 5.21369C15.0014 4.65445 14.8177 4.07011 14.663 3.48462C14.5421 3.02696 14.4986 2.55218 14.4236 2.08424C14.3886 1.86854 14.4768 1.79778 14.6992 1.87995C15.2867 2.09566 15.8972 2.26685 16.4581 2.53163C17.2462 2.9037 18.0186 3.31228 18.7584 3.7631C19.8959 4.45587 20.8763 5.32896 21.83 6.23515C22.4308 6.8058 22.5505 7.47803 22.4139 8.20047C22.3547 8.50977 22.1347 8.81335 21.9219 9.07129C21.3042 9.81998 20.6841 10.5698 20.0071 11.2706C18.8612 12.4575 17.5303 13.4345 16.0156 14.1763C15.5369 14.4114 15.0437 14.6226 14.5518 14.8314C14.3076 14.9353 14.2218 14.8657 14.2181 14.6157C14.2072 13.5418 14.4454 12.5009 14.7162 11.468C14.802 11.1405 14.9652 10.8312 15.0909 10.5116C15.2311 10.1555 15.1453 10.0231 14.7573 10.0973C13.5073 10.3358 12.255 10.5698 11.0208 10.87C10.2689 11.0526 9.52309 11.3014 8.82077 11.613C7.66756 12.1243 6.56875 12.7246 5.57994 13.5064C4.88849 14.0531 4.24178 14.6317 3.7099 15.3131C3.05956 16.1451 2.50109 17.0239 2.10339 18.0008C1.79393 18.7609 1.53162 19.5188 1.44942 20.3302C1.44337 20.3896 1.40227 20.4455 1.37689 20.5026L1.28744 20.5003H1.28623Z" fill="white" fill-opacity="0.6"/>
<path d="M34.7143 25.6066C33.0888 25.6066 31.4633 25.6066 29.8377 25.6066C29.3146 25.6066 29.2224 25.5097 29.2236 24.9899C29.226 22.2215 29.2272 19.4544 29.2284 16.686C29.2284 16.1122 29.3074 16.0239 29.8605 16.0239C32.3323 16.0215 34.8053 16.0227 37.2771 16.019C38.0145 16.019 38.753 16.008 39.4904 15.9982C40.0925 15.9896 40.1703 16.0632 40.1691 16.6688C40.1691 16.7301 40.1691 16.7914 40.1691 16.8527C40.1763 17.5136 40.1105 17.5749 39.4485 17.5736C37.4746 17.5699 35.4996 17.5687 33.5257 17.5687C33.0134 17.5687 32.9583 17.63 32.9571 18.1486C32.9559 18.5974 32.9499 19.0473 32.9535 19.496C32.9559 19.8712 33.0505 19.9656 33.418 19.9656C35.1034 19.9656 36.7888 19.9607 38.4729 19.9632C39.0104 19.9632 39.0487 20.0085 39.0463 20.5615C39.0463 20.6841 39.0463 20.8067 39.0463 20.9293C39.0439 21.4221 38.9494 21.5251 38.4382 21.5288C37.4016 21.5362 36.3638 21.5313 35.3272 21.5325C34.6796 21.5325 34.0308 21.5288 33.3833 21.5386C33.0134 21.5435 32.9571 21.6195 32.9595 22.0008C32.9631 22.5317 32.9679 23.0626 32.9619 23.5934C32.9595 23.8485 33.0469 24.0078 33.3126 24.025C33.4515 24.0336 33.5903 24.0483 33.7304 24.0495C35.6444 24.052 37.5596 24.0507 39.4736 24.0532C39.5933 24.0532 39.713 24.0569 39.8304 24.0765C40.0698 24.1157 40.2014 24.2457 40.1799 24.5166C40.1631 24.7189 40.1763 24.9249 40.1763 25.1297C40.1763 25.4913 40.0997 25.5747 39.7406 25.6005C39.6017 25.6103 39.4617 25.6103 39.3216 25.6103C37.7859 25.6103 36.2501 25.6103 34.7143 25.6103V25.6078V25.6066Z" fill="white" fill-opacity="0.6"/>
<path d="M48.9926 16.0034C50.5284 16.0034 52.063 16.0034 53.5987 16.0034C53.728 16.0034 53.8573 16.0108 53.9866 16.0218C54.2128 16.0402 54.3265 16.1751 54.3349 16.4019C54.3421 16.6165 54.3421 16.831 54.3409 17.0456C54.3385 17.4538 54.2511 17.558 53.8537 17.5654C53.2552 17.5764 52.6567 17.5691 52.0594 17.5691C50.6637 17.5691 49.2667 17.5691 47.871 17.5728C47.4257 17.574 47.3695 17.6353 47.3671 18.0877C47.3635 18.6799 47.3647 19.272 47.3695 19.8642C47.3719 20.2847 47.4796 20.3926 47.883 20.3926C49.4786 20.3926 51.0742 20.3914 52.6698 20.3902C52.7692 20.3902 52.8697 20.3877 52.9691 20.3926C53.3797 20.411 53.4443 20.4809 53.4503 20.9112C53.4527 21.0645 53.4527 21.2178 53.4503 21.371C53.4479 21.8406 53.4084 21.9092 52.9392 21.9178C51.7733 21.9387 50.6062 21.9325 49.4391 21.9362C48.9005 21.9374 48.3618 21.9313 47.8231 21.9362C47.4557 21.9399 47.3659 22.0355 47.3659 22.4144C47.3635 23.2922 47.3671 24.1713 47.3659 25.0491C47.3659 25.4672 47.2629 25.5885 46.8584 25.5935C45.9307 25.6045 45.0042 25.6045 44.0765 25.5984C43.733 25.5959 43.6228 25.4696 43.624 25.1349C43.6288 22.3261 43.6324 19.5172 43.6384 16.7096C43.6396 16.0905 43.7318 15.9998 44.3291 16.001C45.884 16.001 47.4401 16.001 48.995 16.001L48.9926 16.0034Z" fill="white" fill-opacity="0.6"/>
<path d="M61.7642 16.0197C63.6687 16.0197 65.5731 16.0184 67.4787 16.0209C67.8845 16.0209 67.9923 16.1374 67.997 16.5505C67.9994 16.7246 68.003 16.8975 67.997 17.0716C67.9863 17.4394 67.8666 17.5669 67.5027 17.5694C66.5451 17.5743 65.5875 17.5706 64.6299 17.5718C64.4299 17.5718 64.2312 17.5718 64.0313 17.5767C63.6555 17.5853 63.5657 17.6871 63.5669 18.0818C63.5705 18.9499 63.5729 19.8179 63.5741 20.6872C63.5777 22.1584 63.5801 23.6296 63.5825 25.1009C63.5825 25.4662 63.4855 25.5901 63.1288 25.595C62.2119 25.6084 61.2938 25.6133 60.3757 25.6023C59.9172 25.5974 59.8562 25.5067 59.8562 25.0273C59.8598 22.7077 59.8622 20.3892 59.8634 18.0696C59.8634 17.6576 59.782 17.5743 59.3666 17.573C58.2689 17.5706 57.1725 17.5706 56.0748 17.5694C55.523 17.5694 55.4895 17.5326 55.4883 16.9551C55.4883 16.8423 55.4883 16.7308 55.4883 16.618C55.4907 16.0883 55.5445 16.0209 56.076 16.0197C57.9709 16.0135 59.8657 16.0172 61.7606 16.0172C61.7606 16.0172 61.7606 16.0184 61.7606 16.0197H61.7642Z" fill="white" fill-opacity="0.6"/>
<path d="M34.901 11.4096C34.901 12.6871 34.901 13.9634 34.901 15.2409C34.901 15.6332 34.8603 15.6712 34.4653 15.6663C34.2558 15.6639 34.0463 15.6688 33.8369 15.6663C33.5065 15.6639 33.4083 15.5719 33.4071 15.2262C33.4047 14.368 33.4119 13.5097 33.4119 12.6515C33.4119 12.204 33.3664 12.1648 32.9295 12.1685C32.4304 12.1721 31.9324 12.1685 31.4333 12.1636C30.891 12.1587 30.8419 12.2077 30.8443 12.7766C30.8467 13.5735 30.8527 14.3704 30.8515 15.1673C30.8515 15.6308 30.8012 15.6749 30.3512 15.6663C30.1513 15.6627 29.9502 15.6492 29.7527 15.6688C29.445 15.7007 29.3433 15.5204 29.3074 15.2593C29.293 15.1588 29.299 15.0558 29.299 14.9528C29.2978 12.5829 29.2966 10.2117 29.2966 7.8418C29.2966 7.74004 29.2918 7.63583 29.3074 7.53652C29.3481 7.27538 29.4618 7.10373 29.7634 7.13193C29.9813 7.15277 30.2027 7.14419 30.4218 7.13561C30.7546 7.12212 30.8276 7.17362 30.8407 7.51936C30.8539 7.84548 30.8443 8.17283 30.8455 8.50018C30.8455 9.10339 30.8455 9.70537 30.8479 10.3086C30.8503 10.7046 30.9784 10.8149 31.3555 10.8027C31.9037 10.7867 32.4519 10.7916 33.0001 10.783C33.3281 10.7781 33.4083 10.7021 33.4095 10.3637C33.4143 9.47488 33.4071 8.586 33.4095 7.69713C33.4095 7.20427 33.4825 7.13561 33.9673 7.14174C34.1373 7.14419 34.3061 7.14174 34.4761 7.14051C34.8651 7.13684 34.8986 7.16749 34.8986 7.57821C34.8998 8.72209 34.8986 9.86721 34.8986 11.0111C34.8986 11.1435 34.8986 11.2771 34.8986 11.4096H34.9022H34.901Z" fill="white" fill-opacity="0.6"/>
<path d="M39.4612 13.9744C39.1524 13.9744 38.8436 13.9744 38.5347 13.9744C38.269 13.9744 38.0835 14.0443 38.0404 14.3716C37.9985 14.6929 37.8955 15.0055 37.8094 15.3194C37.7459 15.5486 37.6059 15.681 37.3533 15.6712C37.0744 15.6614 36.7955 15.6737 36.5166 15.6712C36.3011 15.6688 36.1982 15.5597 36.2544 15.3365C36.4771 14.4611 36.7057 13.5857 36.9307 12.7104C37.0145 12.3855 37.0995 12.0618 37.1761 11.7357C37.4311 10.669 37.6789 9.59992 37.9362 8.53327C38.0188 8.18876 38.1074 7.84302 38.2175 7.50708C38.2953 7.26923 38.451 7.12579 38.7334 7.13682C39.1811 7.15521 39.63 7.13682 40.0789 7.13928C40.4476 7.14173 40.5553 7.23 40.6427 7.59536C40.7923 8.22799 40.9252 8.8643 41.0892 9.49326C41.3465 10.4839 41.6326 11.4672 41.8888 12.459C42.0863 13.2241 42.2539 13.9989 42.4406 14.7664C42.4789 14.9233 42.5519 15.0717 42.595 15.2286C42.6836 15.5523 42.6022 15.6651 42.2754 15.6737C41.9965 15.681 41.7164 15.6712 41.4375 15.681C41.234 15.6884 41.1275 15.605 41.0808 15.399C41.003 15.0508 40.9048 14.7088 40.8174 14.363C40.7516 14.1019 40.6163 13.9621 40.3291 13.983C40.0418 14.0038 39.7509 13.9879 39.4624 13.9879C39.4624 13.983 39.4624 13.9781 39.4624 13.9732L39.4612 13.9744ZM39.4433 12.6625C39.4433 12.6625 39.4433 12.665 39.4433 12.6662C39.6324 12.6662 39.8215 12.6662 40.0119 12.6662C40.365 12.6662 40.4404 12.5375 40.3374 12.1881C40.2094 11.7504 40.1016 11.3053 39.9963 10.8603C39.867 10.3171 39.7497 9.77034 39.6252 9.22598C39.6097 9.15732 39.5869 9.08254 39.545 9.02982C39.5007 8.97219 39.4337 8.91211 39.3691 8.90108C39.3355 8.89495 39.2721 8.98813 39.2458 9.04821C39.2182 9.11073 39.223 9.18797 39.2075 9.25786C39.0806 9.81202 38.9537 10.3662 38.8256 10.9191C38.7215 11.3654 38.603 11.808 38.5132 12.2567C38.4557 12.5436 38.5575 12.6527 38.846 12.6625C39.0447 12.6687 39.2446 12.6638 39.4445 12.6638L39.4433 12.6625Z" fill="white" fill-opacity="0.6"/>
<path d="M53.134 7.1427C53.383 7.1427 53.638 7.11204 53.8798 7.15373C54.0246 7.17825 54.2042 7.28737 54.2724 7.41242C54.3897 7.63066 54.4424 7.88935 54.5046 8.13455C54.7237 8.99032 54.9367 9.84855 55.1486 10.7055C55.3317 11.4448 55.5053 12.1866 55.6932 12.9234C55.886 13.6811 56.0823 14.4364 56.2917 15.1891C56.3899 15.5447 56.3241 15.6599 55.9626 15.6673C55.783 15.671 55.6035 15.671 55.4239 15.6746C54.8589 15.6857 54.8553 15.6869 54.7033 15.118C54.6327 14.852 54.5812 14.581 54.5166 14.3138C54.4651 14.0992 54.3322 13.9803 54.1108 13.979C53.4931 13.9754 52.8743 13.9766 52.2566 13.9643C51.9669 13.9582 51.797 14.0342 51.7539 14.3763C51.7108 14.7159 51.609 15.0555 51.4833 15.3743C51.4331 15.5005 51.2571 15.6354 51.1218 15.655C50.8286 15.6979 50.5257 15.6697 50.2265 15.6697C50.005 15.6697 49.9105 15.5545 49.9655 15.335C50.1678 14.516 50.3773 13.6995 50.5808 12.8805C50.7029 12.3889 50.8178 11.8948 50.9399 11.4019C51.0452 10.9777 51.1554 10.5547 51.2619 10.1305C51.3876 9.62909 51.5073 9.12641 51.6366 8.62497C51.7371 8.23264 51.8377 7.83908 51.9586 7.45411C52.0352 7.21013 52.2255 7.12063 52.4769 7.13657C52.6959 7.15005 52.9162 7.13902 53.1352 7.13902C53.1352 7.13902 53.1352 7.13902 53.1352 7.14025L53.134 7.1427ZM53.1508 12.6598C53.1508 12.6598 53.1508 12.6623 53.1508 12.6647C53.3495 12.6647 53.5494 12.6647 53.7481 12.6647C54.0952 12.6635 54.1551 12.5507 54.0521 12.205C53.9169 11.7489 53.8067 11.2842 53.6954 10.822C53.5626 10.2703 53.4488 9.71246 53.3064 9.1632C53.2801 9.06021 53.1532 8.98419 53.073 8.89469C53.0227 8.99768 52.9509 9.09454 52.9257 9.20243C52.7905 9.77376 52.6696 10.3488 52.5391 10.9213C52.4422 11.3468 52.3225 11.7673 52.2375 12.1964C52.1644 12.5654 52.253 12.6586 52.6145 12.6611C52.7941 12.6611 52.9724 12.6611 53.152 12.6611L53.1508 12.6598Z" fill="white" fill-opacity="0.6"/>
<path d="M46.1802 15.665C45.9803 15.665 45.778 15.6429 45.5829 15.6699C45.2406 15.7177 45.1089 15.5118 45.0407 15.2347C44.7809 14.168 44.5415 13.0965 44.2758 12.0311C44.0124 10.9779 43.7239 9.93086 43.4558 8.8777C43.3409 8.4253 43.2427 7.96799 43.147 7.51068C43.0943 7.25934 43.1745 7.12203 43.4582 7.13797C43.7658 7.15636 44.0759 7.14655 44.3859 7.1441C44.5822 7.14164 44.7067 7.22134 44.751 7.42731C44.8898 8.0722 45.0347 8.71709 45.1723 9.36198C45.2956 9.93822 45.4165 10.5145 45.535 11.0919C45.6416 11.6105 45.7457 12.1291 45.851 12.6477C45.9217 12.9959 45.9851 13.3454 46.0641 13.6911C46.0797 13.7585 46.1539 13.8112 46.2018 13.8713C46.2532 13.8063 46.337 13.7487 46.3502 13.6764C46.5214 12.7985 46.677 11.9183 46.8493 11.0404C46.9487 10.5316 47.0744 10.0277 47.1785 9.51892C47.3042 8.90222 47.4311 8.28553 47.5352 7.66393C47.5963 7.2998 47.7363 7.1441 48.1014 7.14165C48.3707 7.13919 48.6401 7.13797 48.9094 7.13797C49.2469 7.13797 49.326 7.24586 49.2422 7.59405C49.1679 7.90056 49.0949 8.20584 49.0171 8.51112C48.8196 9.28842 48.6149 10.0633 48.4222 10.8406C48.1553 11.9158 47.9015 12.9947 47.6334 14.0712C47.5233 14.515 47.388 14.9515 47.2695 15.3928C47.2072 15.6221 47.0588 15.6846 46.8422 15.6699C46.6231 15.6564 46.404 15.6675 46.1838 15.6675V15.665H46.1802Z" fill="white" fill-opacity="0.6"/>
<path d="M63.2199 11.379C63.2199 10.1432 63.2187 8.90611 63.2199 7.67027C63.2199 7.18967 63.2689 7.14675 63.7322 7.14675C64.9495 7.14675 66.1657 7.14308 67.3831 7.14062C67.741 7.14062 67.7829 7.17741 67.7924 7.53663C67.7972 7.73035 67.7805 7.92651 67.7972 8.119C67.8236 8.41938 67.6907 8.51746 67.4142 8.51378C66.6756 8.50397 65.9383 8.50765 65.1997 8.50642C64.8203 8.50642 64.7436 8.57753 64.7377 8.96864C64.7317 9.39775 64.7424 9.82686 64.7329 10.256C64.7269 10.5465 64.855 10.6569 65.1315 10.6532C65.7396 10.6446 66.3488 10.6606 66.9569 10.6483C67.2286 10.6434 67.3412 10.7611 67.3364 11.0284C67.3328 11.2025 67.3376 11.3753 67.3412 11.5494C67.3471 11.9246 67.2598 12.0325 66.8947 12.0362C66.3261 12.0411 65.7575 12.0325 65.1889 12.0215C64.8717 12.0153 64.7544 12.0901 64.7448 12.4077C64.7293 12.9079 64.7413 13.4081 64.746 13.9083C64.7496 14.1952 64.8789 14.3239 65.177 14.3154C65.8952 14.2945 66.6134 14.2994 67.3316 14.2957C67.7733 14.2933 67.8032 14.3276 67.7948 14.7825C67.7912 14.9762 67.7924 15.1711 67.7948 15.3648C67.7972 15.5635 67.7158 15.6677 67.5099 15.6677C66.1837 15.6652 64.8562 15.6677 63.5299 15.6664C63.2725 15.6664 63.2211 15.4862 63.2199 15.2717C63.2175 14.628 63.2151 13.9843 63.2139 13.3407C63.2139 12.6872 63.2139 12.0325 63.2139 11.379C63.2151 11.379 63.2163 11.379 63.2175 11.379H63.2199Z" fill="white" fill-opacity="0.6"/>
<path d="M57.4189 11.412C57.4189 10.197 57.4189 8.98199 57.4189 7.76699C57.4189 7.22018 57.5087 7.13191 58.0462 7.14172C58.2353 7.1454 58.4256 7.15153 58.6136 7.13927C58.8135 7.12701 58.914 7.21896 58.9344 7.4139C58.9487 7.55612 58.9631 7.69834 58.9631 7.84056C58.9631 9.80098 58.9631 11.7602 58.9619 13.7206C58.9619 14.2331 59.0361 14.3091 59.5281 14.3079C60.2463 14.3079 60.9633 14.3042 61.6815 14.3103C62.0358 14.314 62.0741 14.363 62.0741 14.7235C62.0741 14.8866 62.0741 15.0496 62.0741 15.2139C62.0729 15.6075 62.0107 15.67 61.6169 15.67C60.3911 15.67 59.1654 15.6675 57.9396 15.6688C57.5363 15.6688 57.4249 15.5695 57.4237 15.1489C57.4189 13.9033 57.4225 12.6576 57.4213 11.412H57.4189Z" fill="white" fill-opacity="0.6"/>
</g>
<defs>
<clipPath id="clip0_3_867">
<rect width="68" height="32" fill="white"/>
</clipPath>
</defs>
</svg>
