<svg width="76" height="32" viewBox="0 0 76 32" fill="none" xmlns="http://www.w3.org/2000/svg">
<g clip-path="url(#clip0_3_881)">
<g clip-path="url(#clip1_3_881)">
<path fill-rule="evenodd" clip-rule="evenodd" d="M55.5723 21.8566H58.4971V13.7088C58.4971 12.2985 59.6462 11.1495 61.0564 11.1495H61.5787C61.9443 11.1495 62.3099 11.2539 62.6755 11.4106L63.9291 8.74691C63.1978 8.3813 62.4144 8.22461 61.5787 8.22461H61.0564C58.0271 8.22461 55.5723 10.6794 55.5723 13.7088V21.8566Z" fill="white" fill-opacity="0.6"/>
<path d="M7.05007 8.22461H5.48317C2.45383 8.22461 -0.000976562 10.6794 -0.000976562 13.7088V26.5051H2.9239V21.8044C3.60289 22.1178 4.38634 22.3267 5.16979 22.3267H6.78892C9.92272 22.3267 12.482 19.7674 12.482 16.6336V13.7088C12.5342 10.6794 10.0794 8.22461 7.05007 8.22461ZM9.55711 16.6336C9.55711 18.1483 8.30359 19.4018 6.78892 19.4018H5.22202C3.9685 19.4018 2.97613 18.4095 2.97613 17.1559V13.761C2.97613 12.3508 4.12519 11.2017 5.5354 11.2017H7.1023C8.51251 11.2017 9.66157 12.3508 9.66157 13.761V16.6336H9.55711Z" fill="white" fill-opacity="0.6"/>
<path fill-rule="evenodd" clip-rule="evenodd" d="M21.3615 8.22461H18.9067C16.6085 8.22461 14.676 9.73928 14.2582 11.724L17.1308 12.403C17.1831 11.724 17.9665 11.1495 18.8544 11.1495H21.3092C22.2494 11.1495 23.0851 11.7762 23.0851 12.4552C23.0851 12.8731 22.9806 13.1342 22.8761 13.2909C22.3538 13.8132 20.7347 13.761 19.5334 13.761C19.4812 13.761 19.429 13.761 19.3767 13.761C19.1678 13.761 19.0111 13.761 18.8022 13.761C16.9741 13.761 15.8251 14.44 15.1983 15.0667C14.3626 15.8502 13.8926 16.947 13.8926 18.0961C13.8926 19.2451 14.3104 20.2375 15.0939 21.021C15.6684 21.6477 16.713 22.3267 18.3844 22.3267H21.3092C23.9207 22.3267 26.0099 20.3942 26.0099 18.0438V12.5075C26.0622 10.1571 23.9207 8.22461 21.3615 8.22461ZM23.0851 18.0438C23.0851 18.7751 22.3016 19.3496 21.3092 19.3496H18.3844C17.1831 19.3496 16.7652 18.6706 16.7652 18.0961C16.7652 17.7827 16.9219 17.4693 17.1308 17.2082C17.4964 16.8948 18.0187 16.6859 18.75 16.6859C18.9589 16.6859 19.22 16.6859 19.429 16.6859C20.6302 16.6859 21.936 16.7381 23.0328 16.3725V18.0438H23.0851Z" fill="white" fill-opacity="0.6"/>
<path d="M34.8372 8.22461H33.2703C30.2409 8.22461 27.7861 10.6794 27.7861 13.7088V26.5051H30.711V21.8044C31.39 22.1178 32.1735 22.3267 32.9569 22.3267H34.576C37.7098 22.3267 40.2691 19.7674 40.2691 16.6336V13.7088C40.3213 10.6794 37.8665 8.22461 34.8372 8.22461ZM37.3965 16.6336C37.3965 18.1483 36.1429 19.4018 34.6283 19.4018H33.0091C31.7556 19.4018 30.7632 18.4095 30.7632 17.1559V13.761C30.7632 12.3508 31.9123 11.2017 33.3225 11.2017H34.8894C36.2996 11.2017 37.4487 12.3508 37.4487 13.761V16.6336H37.3965Z" fill="white" fill-opacity="0.6"/>
<path fill-rule="evenodd" clip-rule="evenodd" d="M49.1481 8.22461H46.6933C44.3952 8.22461 42.4627 9.73928 42.0448 11.724L44.9697 12.403C45.0219 11.724 45.8054 11.1495 46.6933 11.1495H49.1481C50.0882 11.1495 50.9239 11.7762 50.9239 12.4552C50.9239 12.8731 50.8195 13.1342 50.715 13.2909C50.1927 13.8132 48.5736 13.761 47.3723 13.761C47.3201 13.761 47.2678 13.761 47.2156 13.761C47.0067 13.761 46.85 13.761 46.6411 13.761C44.813 13.761 43.664 14.44 43.0372 15.0667C42.2015 15.8502 41.7314 16.947 41.7314 18.0961C41.7314 19.2451 42.1493 20.2375 42.9327 21.021C43.5073 21.5955 44.6041 22.2745 46.2755 22.2745H49.2003C51.8118 22.2745 53.901 20.342 53.901 17.9916V12.5075C53.8488 10.1571 51.7074 8.22461 49.1481 8.22461ZM50.8717 18.0438C50.8717 18.7751 50.0882 19.3496 49.0959 19.3496H46.171C44.9697 19.3496 44.5519 18.6706 44.5519 18.0961C44.5519 17.7827 44.7086 17.4693 44.9175 17.2082C45.2831 16.8948 45.8054 16.6859 46.5366 16.6859C46.7455 16.6859 47.0067 16.6859 47.2156 16.6859C48.4169 16.6859 49.7226 16.7381 50.8195 16.3725V18.0438H50.8717Z" fill="white" fill-opacity="0.6"/>
<path fill-rule="evenodd" clip-rule="evenodd" d="M71.5544 8.22461H69.0995C66.8014 8.22461 64.8689 9.73928 64.4511 11.724L67.376 12.403C67.4282 11.724 68.2116 11.1495 69.0995 11.1495H71.5544C72.4945 11.1495 73.3302 11.7762 73.3302 12.4552C73.3302 12.8731 73.2257 13.1342 73.1213 13.2909C72.599 13.8132 70.9798 13.761 69.7785 13.761C69.7263 13.761 69.6741 13.761 69.6218 13.761C69.4129 13.761 69.2562 13.761 69.0473 13.761C67.2193 13.761 66.0702 14.44 65.4434 15.0667C64.6078 15.8502 64.1377 16.947 64.1377 18.0961C64.1377 19.2451 64.5555 20.2375 65.339 21.021C65.9135 21.5955 67.0103 22.2745 68.6817 22.2745H71.6066C74.2181 22.2745 76.3073 20.342 76.3073 17.9916V12.5075C76.2551 10.1571 74.1659 8.22461 71.5544 8.22461ZM73.3302 18.0438C73.3302 18.7751 72.5467 19.3496 71.5544 19.3496H68.6295C67.4282 19.3496 67.0103 18.6706 67.0103 18.0961C67.0103 17.7827 67.167 17.4693 67.376 17.2082C67.7416 16.8948 68.2639 16.6859 68.9951 16.6859C69.204 16.6859 69.4651 16.6859 69.6741 16.6859C70.8754 16.6859 72.1811 16.7381 73.2779 16.3725V18.0438H73.3302Z" fill="white" fill-opacity="0.6"/>
</g>
</g>
<defs>
<clipPath id="clip0_3_881">
<rect width="76" height="32" fill="white"/>
</clipPath>
<clipPath id="clip1_3_881">
<rect width="76.3077" height="19.6923" fill="white" transform="translate(0 7.38477)"/>
</clipPath>
</defs>
</svg>
