<svg width="79" height="32" viewBox="0 0 79 32" fill="none" xmlns="http://www.w3.org/2000/svg">
<mask id="mask0_3_889" style="mask-type:luminance" maskUnits="userSpaceOnUse" x="0" y="2" width="76" height="27">
<path d="M75.2969 2.46191H0V28.6366H75.2969V2.46191Z" fill="white"/>
</mask>
<g mask="url(#mask0_3_889)">
<mask id="mask1_3_889" style="mask-type:luminance" maskUnits="userSpaceOnUse" x="1" y="3" width="22" height="9">
<path d="M1.50195 3.54492H22.9681V11.0702H1.50195V3.54492Z" fill="white"/>
</mask>
<g mask="url(#mask1_3_889)">
<path fill-rule="evenodd" clip-rule="evenodd" d="M12.199 3.54443C15.7972 5.03368 19.362 6.61165 22.9561 8.11033C22.9754 9.09618 22.9656 10.082 22.9656 11.0699C15.8182 11.0662 8.6687 11.0681 1.51937 11.0681C1.50782 10.0895 1.52315 9.11308 1.50195 8.13482C5.06147 6.59659 8.62437 5.04874 12.199 3.54443Z" fill="white" fill-opacity="0.6"/>
</g>
<path fill-rule="evenodd" clip-rule="evenodd" d="M40.7168 10.3188C41.1861 10.3188 41.6569 10.317 42.128 10.3151C42.9869 11.7682 43.7974 13.248 44.67 14.6937C44.6605 13.2328 44.668 11.774 44.6622 10.3149C45.0597 10.3168 45.4557 10.3186 45.8512 10.3186C45.8607 12.3983 45.8493 14.4781 45.859 16.5575C45.4034 16.5557 44.9478 16.552 44.4943 16.5481C43.6507 15.0551 42.7802 13.5755 41.9117 12.0955C41.931 13.5829 41.9135 15.0683 41.9289 16.5557H40.709C40.7188 14.4781 40.7071 12.3983 40.7168 10.3188ZM47.1097 10.3188C47.5516 10.3188 47.9935 10.317 48.4378 10.317C48.4321 11.1909 48.434 12.0673 48.434 12.9415C49.2425 12.0579 50.0783 11.1987 50.9009 10.3265C51.4666 10.3188 52.0327 10.315 52.5989 10.3149C51.7461 11.159 50.7518 11.9423 49.995 12.8639C50.86 14.0938 51.7885 15.2859 52.6784 16.5008C52.132 16.4666 51.4581 16.567 50.9471 16.4135C50.2675 15.5565 49.6807 14.6198 49.0439 13.7323C48.8218 13.9425 48.5997 14.1544 48.3775 14.3645C48.3705 15.0728 48.3695 15.7811 48.3761 16.4894C47.9531 16.4876 47.5305 16.4857 47.1097 16.4857C47.1116 14.4307 47.1079 12.3739 47.1097 10.3188Z" fill="white" fill-opacity="0.6"/>
<path fill-rule="evenodd" clip-rule="evenodd" d="M2.7373 11.849C4.29315 11.8641 5.84899 11.8453 7.40274 11.8602C7.40467 12.2255 7.40467 12.5907 7.40655 12.9577L6.58431 12.9748C6.57655 15.7451 6.58055 18.5136 6.58243 21.2837L7.40067 21.295L7.40636 22.3224C5.85087 22.3395 4.29315 22.3205 2.73749 22.3339C2.73938 21.9801 2.73938 21.6242 2.73938 21.2685C3.02708 21.2779 3.31459 21.2856 3.60021 21.2932C3.60399 18.5154 3.6021 15.7375 3.6021 12.9598L2.73938 12.9709C2.73938 12.5964 2.7392 12.2237 2.7373 11.849ZM9.93319 11.8698C11.4716 11.8244 13.0157 11.8754 14.5558 11.8489C14.5558 12.2218 14.5579 12.5964 14.5579 12.9692C14.2954 12.9674 14.0308 12.9635 13.7687 12.9616C13.7569 15.7393 13.7761 18.5171 13.7569 21.2948L14.5579 21.2666V22.3357C13.0097 22.3263 11.4639 22.3281 9.91784 22.3339C9.91784 21.9856 9.91784 21.6375 9.91559 21.2893C10.1802 21.2874 10.4427 21.2856 10.7073 21.2856C10.713 18.5152 10.7013 15.7431 10.713 12.9728C10.4486 12.9709 10.186 12.9672 9.92147 12.9653C9.91766 12.6001 9.90594 12.2332 9.93319 11.8698ZM17.015 11.8546C18.5863 11.8509 20.1556 11.8622 21.7247 11.8472C21.7266 12.2218 21.7266 12.5964 21.7266 12.9711C21.4487 12.9692 21.1727 12.9655 20.8949 12.9637C20.8949 15.7395 20.8928 18.5154 20.8949 21.2932L21.7284 21.2705C21.7266 21.6262 21.7266 21.9819 21.7247 22.3357C20.1548 22.3257 18.5848 22.3251 17.015 22.3339L17.0093 21.2744L17.8818 21.2911C17.8705 18.5134 17.8799 15.7375 17.8759 12.9616C17.5882 12.9635 17.2986 12.9672 17.0111 12.9711C17.0111 12.5983 17.013 12.2274 17.015 11.8546Z" fill="white" fill-opacity="0.6"/>
<path fill-rule="evenodd" clip-rule="evenodd" d="M36.0147 14.1808C36.2348 13.562 36.4565 12.9431 36.6671 12.3208C36.7404 12.1034 36.8155 11.8855 36.889 11.6678C37.1708 12.5024 37.4237 13.3463 37.7055 14.1808H36.0147ZM37.6167 10.3168C37.1246 10.315 36.6245 10.2942 36.1364 10.3415C35.3314 12.3585 34.6517 14.4515 33.8935 16.4893C34.3451 16.4874 34.7965 16.4818 35.2481 16.4761C35.3853 16.0617 35.5224 15.6472 35.6573 15.2329C36.4546 15.2292 37.2499 15.2292 38.0469 15.2254C38.1707 15.67 38.2943 16.1127 38.4217 16.5573C38.8924 16.5555 39.3652 16.5536 39.8384 16.5555C39.0775 14.4836 38.3539 12.3965 37.6167 10.3168ZM31.2799 15.3522C30.6061 15.547 29.8225 15.445 29.1239 15.4561C29.1201 14.8772 29.1182 14.3001 29.1202 13.723C29.896 13.7533 30.9093 13.6132 31.6098 13.986C31.9903 14.3929 31.8262 15.1534 31.2799 15.3522ZM31.2838 11.4637C31.83 11.6434 31.7778 12.5158 31.2567 12.6746C30.5791 12.8413 29.8205 12.7693 29.1258 12.7749C29.1219 12.3163 29.12 11.8579 29.1202 11.3993C29.828 11.4164 30.5889 11.3197 31.2838 11.4637ZM32.2295 13.1875C32.8068 12.7162 33.0287 12.3718 32.9204 11.6036C32.8088 10.7334 31.936 10.3359 31.1333 10.2714C30.0463 10.209 28.9519 10.2658 27.8615 10.2469C27.8866 12.3266 27.8711 14.4061 27.8711 16.4855C29.0137 16.4725 30.1604 16.5178 31.3008 16.4668C31.8107 16.4458 32.2701 16.2926 32.6021 15.899C33.3276 15.1061 33.2641 13.7078 32.2295 13.1875ZM56.8378 18.1906C57.3955 18.5652 57.5211 19.1102 57.6694 19.7177C57.2585 19.7195 56.8472 19.7195 56.4364 19.7158C56.2411 19.3883 56.1446 19.0497 55.7488 18.9078C55.3262 18.7847 54.8109 18.7658 54.3897 18.9059C53.9464 19.097 53.7356 19.5908 54.0368 19.9977C55.0001 20.5143 56.2604 20.5067 57.2138 21.0364C57.8797 21.4471 57.9282 22.2778 57.7621 22.9571C57.5555 23.6175 56.9781 24.0054 56.3258 24.1814C55.2914 24.4482 54.0485 24.3404 53.1817 23.68C52.6857 23.2901 52.6278 22.7717 52.5139 22.2002C52.9403 22.1983 53.3671 22.1983 53.7916 22.2039C53.9441 22.5199 53.9958 22.9382 54.3667 23.0819C54.913 23.22 55.5964 23.2768 56.1347 23.0782C56.6002 22.8567 56.7762 22.2475 56.3126 21.9315C55.4302 21.4357 53.9596 21.5625 53.1257 20.8813C52.288 20.1528 52.5506 18.5633 53.5582 18.0807C54.4923 17.5736 55.9592 17.5642 56.8378 18.1906ZM27.6472 17.8536C29.3862 17.8158 31.1274 17.8443 32.8683 17.8386C32.8683 18.2056 32.8683 18.5726 32.8705 18.9399C32.2275 18.9323 31.5868 18.9304 30.944 18.9304C30.9421 20.6542 30.9459 22.378 30.944 24.1018H29.56C29.5581 22.378 29.56 20.6542 29.56 18.9285C28.9153 18.9323 28.2707 18.9323 27.626 18.9323C27.6336 18.5726 27.6394 18.2132 27.6472 17.8536ZM46.4606 17.8384C46.9302 17.8366 47.3989 17.8366 47.8662 17.8347C48.7058 19.2861 49.5223 20.7507 50.3872 22.1868C50.4098 20.7375 50.3891 19.2861 50.3985 17.8366H51.5953C51.599 19.9257 51.599 22.0128 51.5972 24.1018C51.1491 24.1018 50.7035 24.1018 50.2573 24.1036C49.391 22.6183 48.5434 21.1234 47.6634 19.6455C47.6384 21.1311 47.6478 22.6164 47.6577 24.1018H46.4551C46.4684 22.0146 46.4568 19.9274 46.4606 17.8384ZM58.8139 17.8384C60.3099 17.8328 61.8037 17.8384 63.2997 17.8347C63.3058 18.2017 63.3096 18.5689 63.3152 18.936C62.2404 18.9285 61.165 18.9323 60.0921 18.9304C60.0902 19.4091 60.0902 19.886 60.0883 20.3628C61.0182 20.3647 61.9486 20.3647 62.879 20.361C62.879 20.7147 62.8771 21.0666 62.8771 21.4205C61.9505 21.3998 61.0243 21.4016 60.0977 21.415C60.0883 22.2852 60.0902 23.1577 60.0921 24.0281C59.6633 24.0281 59.2365 24.0281 58.8101 24.0299C58.8195 21.9655 58.8101 19.9027 58.8139 17.8384ZM64.2649 17.8384C65.8071 17.8347 67.3511 17.8384 68.8938 17.8347C68.8957 18.2017 68.8957 18.5671 68.8976 18.9341C67.7742 18.9304 66.6485 18.9304 65.5233 18.9341C65.5252 19.3883 65.5252 19.8405 65.5252 20.2946C66.5568 20.2861 67.5883 20.2842 68.6199 20.289V21.3429C67.5869 21.3429 66.5539 21.3392 65.5214 21.3448C65.5233 21.8861 65.5233 22.429 65.5214 22.9703C66.697 22.9647 67.8726 22.9666 69.0482 22.9666C69.05 23.3451 69.05 23.7234 69.0519 24.1018H64.2593C64.2668 22.0146 64.2593 19.9255 64.2649 17.8384ZM37.0203 20.6013C36.3526 20.7204 35.6325 20.6371 34.953 20.6523C34.955 20.0808 34.9568 19.5074 34.9568 18.936C35.5977 18.9415 36.2711 18.8773 36.9026 18.9872C37.4798 19.2859 37.6553 20.2703 37.0203 20.6013ZM38.4236 21.6816C38.2673 21.4641 38.0064 21.3108 37.7943 21.1461C38.7845 20.6958 39.0276 19.4904 38.4389 18.6333C38.0509 18.0353 37.4064 17.8915 36.7286 17.8518C35.7134 17.8082 34.6943 17.8499 33.6773 17.8347C33.6444 19.9238 33.6849 22.0128 33.6541 24.1018H34.9665C34.9532 23.2786 34.9532 22.4555 34.9587 21.6324C35.553 21.7005 36.7943 21.4053 37.1496 21.9881C37.3559 22.6353 37.2499 23.4225 37.3196 24.1018C37.8289 24.0999 38.3384 24.1018 38.8481 24.1133C38.4253 23.307 38.7999 22.4707 38.4236 21.6816ZM73.5067 20.6184C72.8445 20.7034 72.1574 20.6447 71.4897 20.6523C71.4878 20.0808 71.4878 19.5093 71.4897 18.9378C72.1476 18.9456 72.9024 18.851 73.534 19.0571C74.0587 19.3336 74.1495 20.4196 73.5067 20.6184ZM74.9679 21.7914C74.8714 21.4547 74.5335 21.2882 74.277 21.0761C74.5585 20.872 74.8658 20.7149 75.0314 20.4007C75.4272 19.657 75.1627 18.6257 74.4408 18.1659C73.877 17.831 73.2695 17.7893 72.6248 17.7855C71.7753 17.7855 70.9282 17.7931 70.0788 17.7893C70.0788 19.8689 70.0882 21.9504 70.0731 24.0299L71.3527 24.0244C71.3438 23.1969 71.3424 22.3692 71.3485 21.5417C71.972 21.5909 72.9391 21.3942 73.4587 21.7783C73.8079 22.4008 73.6262 23.3222 73.7655 24.0262C74.2766 24.0262 74.7862 24.0299 75.2978 24.0452C74.9585 23.3015 75.1825 22.5463 74.9679 21.7914ZM41.7628 21.7176C42.0618 20.9342 42.2839 20.1224 42.614 19.3505C43.0328 20.0487 43.1466 20.9607 43.4496 21.7194C42.8862 21.7176 42.3246 21.7176 41.7628 21.7176ZM43.3279 17.8291C42.8647 17.831 42.3957 17.8139 41.9346 17.8573C41.7723 18.0316 41.7047 18.2984 41.6159 18.516C40.9675 20.3836 40.3131 22.2494 39.6221 24.1036C40.0758 24.1018 40.5293 24.1018 40.983 24.1018C41.1276 23.6761 41.2745 23.2521 41.423 22.8264C42.2142 22.8246 43.0058 22.8246 43.7971 22.8264C43.9187 23.2503 44.0404 23.6743 44.1621 24.0999C44.6349 24.1018 45.1077 24.1018 45.5807 24.1036C44.8046 22.0204 44.1096 19.9105 43.3279 17.8291Z" fill="white" fill-opacity="0.6"/>
<path fill-rule="evenodd" clip-rule="evenodd" d="M1.5127 23.1807C8.66409 23.1899 15.8155 23.1825 22.9667 23.1844C22.9667 23.5363 22.9667 23.8902 22.9688 24.242C15.8172 24.2364 8.66597 24.2401 1.51459 24.2401C1.5127 23.8863 1.5127 23.5343 1.5127 23.1807Z" fill="white" fill-opacity="0.6"/>
<mask id="mask2_3_889" style="mask-type:luminance" maskUnits="userSpaceOnUse" x="0" y="25" width="25" height="2">
<path d="M0 25.0259H24.4671V26.0687H0V25.0259Z" fill="white"/>
</mask>
<g mask="url(#mask2_3_889)">
<path fill-rule="evenodd" clip-rule="evenodd" d="M0.00378555 25.028C8.15893 25.0261 16.3141 25.0243 24.4671 25.028V26.067C16.3122 26.067 8.15512 26.0593 0 26.0688C0.00189278 25.7225 0.00378555 25.3743 0.00378555 25.028Z" fill="white" fill-opacity="0.6"/>
</g>
</g>
</svg>
