<svg width="65" height="65" viewBox="0 0 65 65" fill="none" xmlns="http://www.w3.org/2000/svg">
<rect width="65" height="65" rx="12" fill="url(#paint0_linear_4_800)"/>
<path d="M33.1479 23.5143C33.1479 24.5685 31.9505 25.5146 30.1039 26.0958C28.6431 26.5474 27.112 26.7667 25.5739 26.7445C24.0359 26.7667 22.5047 26.5474 21.044 26.0958C19.1974 25.5146 18 24.5685 18 23.5143C18 21.7303 21.3902 20.2842 25.5739 20.2842C29.7576 20.2842 33.1479 21.7303 33.1479 23.5143Z" stroke="#06031F" stroke-width="2.58142" stroke-miterlimit="10" stroke-linecap="square"/>
<path d="M33.1479 23.5146V28.6775C33.1479 29.7317 31.9505 30.6778 30.1039 31.2589C28.6415 31.704 27.1115 31.9231 25.5739 31.9076C24.0364 31.9231 22.5064 31.704 21.044 31.2589C19.1974 30.6778 18 29.7317 18 28.6775V23.5146C18 24.5688 19.1974 25.5149 21.044 26.0961C22.5047 26.5477 24.0359 26.767 25.5739 26.7448C27.112 26.767 28.6431 26.5477 30.1039 26.0961C31.9505 25.5149 33.1479 24.5688 33.1479 23.5146Z" stroke="#06031F" stroke-width="2.58142" stroke-miterlimit="10" stroke-linecap="square"/>
<path d="M33.1479 28.6772V33.8401C33.1479 34.8943 31.9505 35.8404 30.1039 36.4215C28.6405 36.8616 27.1107 37.0761 25.5739 37.0567C24.0372 37.0761 22.5073 36.8616 21.044 36.4215C19.1974 35.8944 18 34.8943 18 33.8401V28.6772C18 29.7314 19.1974 30.6775 21.044 31.2587C22.5064 31.7038 24.0364 31.9229 25.5739 31.9074C27.1115 31.9229 28.6415 31.7038 30.1039 31.2587C31.9505 30.6775 33.1479 29.7314 33.1479 28.6772Z" stroke="#06031F" stroke-width="2.58142" stroke-miterlimit="10" stroke-linecap="square"/>
<path d="M33.1479 33.8398V39.0027C33.1479 40.7732 29.7576 42.2193 25.5739 42.2193C21.3902 42.2193 18 40.7732 18 39.0027V33.8398C18 34.894 19.1974 35.8401 21.044 36.4213C22.5073 36.8613 24.0372 37.0759 25.5739 37.0565C27.1107 37.0759 28.6405 36.8613 30.1039 36.4213C31.9505 35.8942 33.1479 34.894 33.1479 33.8398Z" stroke="#06031F" stroke-width="2.58142" stroke-miterlimit="10" stroke-linecap="square"/>
<path d="M48.2953 33.8398V39.0027C48.2953 40.7732 44.9051 42.2193 40.7214 42.2193C36.5377 42.2193 33.1475 40.7732 33.1475 39.0027V33.8398C33.1475 34.894 34.3449 35.8401 36.1915 36.4213C37.6548 36.8613 39.1847 37.0759 40.7214 37.0565C42.2581 37.0759 43.788 36.8613 45.2513 36.4213C47.0979 35.8942 48.2953 34.894 48.2953 33.8398Z" stroke="#06031F" stroke-width="2.58142" stroke-miterlimit="10" stroke-linecap="square"/>
<path d="M33.1479 33.8398V44.152C33.1479 45.936 29.7576 47.3822 25.5739 47.3822C21.3902 47.3822 18 45.936 18 44.152V33.8398" stroke="#06031F" stroke-width="2.58142" stroke-miterlimit="10" stroke-linecap="square"/>
<path d="M48.2953 35.1914V44.152C48.2953 45.936 44.9051 47.3822 40.7214 47.3822C36.5377 47.3822 33.1475 45.936 33.1475 44.152V33.8398" stroke="#06031F" stroke-width="2.58142" stroke-miterlimit="10" stroke-linecap="square"/>
<path d="M48.2953 26.0959C48.2953 27.4992 47.8511 28.8711 47.0189 30.0379C46.1867 31.2048 45.0038 32.1142 43.6198 32.6513C42.2359 33.1883 40.713 33.3288 39.2438 33.0551C37.7746 32.7813 36.4251 32.1055 35.3658 31.1132C34.3066 30.1208 33.5852 28.8565 33.293 27.4801C33.0008 26.1037 33.1507 24.6771 33.724 23.3805C34.2972 22.084 35.268 20.9758 36.5135 20.1961C37.7591 19.4165 39.2234 19.0003 40.7214 19.0003C41.7187 18.9913 42.7079 19.1687 43.6312 19.5221C44.5544 19.8754 45.3932 20.3978 46.0985 21.0584C46.8037 21.7191 47.3612 22.5049 47.7384 23.3699C48.1156 24.2348 48.305 25.1616 48.2953 26.0959Z" stroke="#06031F" stroke-width="2.58142" stroke-miterlimit="10" stroke-linecap="square"/>
<path d="M48.2953 33.84C48.2953 34.8942 47.0979 35.8402 45.2513 36.4214C43.788 36.8615 42.2581 37.076 40.7214 37.0566C39.1847 37.076 37.6548 36.8615 36.1915 36.4214C34.3449 35.8943 33.1475 34.8942 33.1475 33.84C33.1475 32.7858 34.1429 32.0019 35.7154 31.4072C37.0942 32.5567 38.8757 33.1917 40.7214 33.1917C42.5671 33.1917 44.3485 32.5567 45.7274 31.4072C47.2999 32.0019 48.2953 32.8669 48.2953 33.84Z" stroke="#06031F" stroke-width="2.58142" stroke-miterlimit="10" stroke-linecap="square"/>
<defs>
<linearGradient id="paint0_linear_4_800" x1="77.9826" y1="292.5" x2="127.254" y2="21.2814" gradientUnits="userSpaceOnUse">
<stop stop-color="#DDB36C"/>
<stop offset="0.375" stop-color="#FFCF7D"/>
<stop offset="0.62" stop-color="#C99132"/>
<stop offset="0.795" stop-color="#FFCC75"/>
<stop offset="0.995" stop-color="#A6782A"/>
</linearGradient>
</defs>
</svg>
