<svg width="64" height="64" viewBox="0 0 64 64" fill="none" xmlns="http://www.w3.org/2000/svg">
<rect width="64" height="64" rx="12" fill="url(#paint0_linear_4_816)"/>
<path fill-rule="evenodd" clip-rule="evenodd" d="M23.8088 31.4787C24.9419 31.4787 26.0198 31.2465 26.9959 30.8279L25.3693 28.0296C24.8807 28.1973 24.3556 28.2884 23.8088 28.2884C23.2621 28.2884 22.737 28.1973 22.2484 28.0296L20.6218 30.8279C21.5979 31.2465 22.6758 31.4787 23.8088 31.4787ZM31.7315 24.5665C31.4709 26.734 30.3111 28.6306 28.6289 29.8861L26.9953 27.076C27.7233 26.4241 28.2436 25.5518 28.447 24.5665H31.7315ZM18.9888 29.8861L20.6223 27.076C19.8944 26.4241 19.3741 25.5518 19.1707 24.5665H15.8862C16.1468 26.734 17.3066 28.6306 18.9888 29.8861ZM28.447 22.7055H31.7315C31.4709 20.5381 30.3111 18.6414 28.6289 17.3859L26.9953 20.196C27.7233 20.848 28.2436 21.7202 28.447 22.7055ZM15.8862 22.7055H19.1707C19.3741 21.7202 19.8944 20.848 20.6223 20.196L18.9888 17.3859C17.3066 18.6414 16.1468 20.5381 15.8862 22.7055ZM23.8088 18.9836C23.2621 18.9836 22.737 19.0747 22.2484 19.2424L20.6218 16.4441C21.5979 16.0255 22.6758 15.7933 23.8088 15.7933C24.9419 15.7933 26.0198 16.0255 26.9959 16.4441L25.3693 19.2424C24.8807 19.0747 24.3556 18.9836 23.8088 18.9836ZM23.8088 33.6055C29.41 33.6055 33.9507 29.142 33.9507 23.636C33.9507 18.13 29.41 13.6665 23.8088 13.6665C18.2077 13.6665 13.667 18.13 13.667 23.636C13.667 29.142 18.2077 33.6055 23.8088 33.6055ZM23.8088 26.1616C25.2278 26.1616 26.3781 25.0309 26.3781 23.636C26.3781 22.2412 25.2278 21.1104 23.8088 21.1104C22.3899 21.1104 21.2396 22.2412 21.2396 23.636C21.2396 25.0309 22.3899 26.1616 23.8088 26.1616ZM43.3077 17.8892C41.9639 16.5683 40.142 15.8253 38.2417 15.8234C37.9701 15.8234 37.7096 15.7173 37.5176 15.5286C37.3256 15.3398 37.2177 15.0838 37.2177 14.8168C37.2177 14.5499 37.3256 14.2939 37.5176 14.1051C37.7096 13.9163 37.9701 13.8103 38.2417 13.8103C40.6849 13.8129 43.0274 14.7681 44.755 16.4664C46.4827 18.1647 47.4544 20.4674 47.4571 22.8691V25.0404L48.0492 24.4577C48.2423 24.2736 48.5013 24.1715 48.7703 24.1736C49.0393 24.1756 49.2967 24.2815 49.487 24.4685C49.6772 24.6555 49.785 24.9085 49.787 25.173C49.7891 25.4374 49.6852 25.692 49.4979 25.8818L47.1575 28.1825C46.9653 28.3712 46.7048 28.4771 46.4331 28.4771C46.1615 28.4771 45.901 28.3712 45.7088 28.1825L43.3684 25.8818C43.1811 25.692 43.0772 25.4374 43.0793 25.173C43.0813 24.9085 43.1891 24.6555 43.3793 24.4685C43.5695 24.2815 43.8269 24.1756 44.096 24.1736C44.365 24.1715 44.624 24.2736 44.8171 24.4577L45.4092 25.0404V22.8691C45.4072 21.0011 44.6514 19.2101 43.3077 17.8892ZM26.5395 48.3201C24.6392 48.3181 22.8173 47.5752 21.4735 46.2543C20.1298 44.9334 19.374 43.1424 19.372 41.2743V39.1031L19.9641 39.6857C20.1572 39.8699 20.4162 39.9719 20.6852 39.9699C20.9542 39.9679 21.2117 39.862 21.4019 39.675C21.5921 39.488 21.6999 39.2349 21.7019 38.9705C21.704 38.7061 21.6001 38.4515 21.4128 38.2616L19.0724 35.961C18.8802 35.7723 18.6197 35.6663 18.348 35.6663C18.0764 35.6663 17.8159 35.7723 17.6237 35.961L15.2833 38.2616C15.096 38.4515 14.9921 38.7061 14.9942 38.9705C14.9962 39.2349 15.104 39.488 15.2942 39.675C15.4844 39.862 15.7419 39.9679 16.0109 39.9699C16.2799 39.9719 16.5389 39.8699 16.732 39.6857L17.3241 39.1031V41.2743C17.3267 43.6761 18.2985 45.9787 20.0262 47.677C21.7538 49.3753 24.0963 50.3306 26.5395 50.3332C26.8111 50.3332 27.0715 50.2271 27.2636 50.0384C27.4556 49.8496 27.5635 49.5936 27.5635 49.3266C27.5635 49.0597 27.4556 48.8037 27.2636 48.6149C27.0715 48.4261 26.8111 48.3201 26.5395 48.3201ZM40.0358 29.7711C34.3484 29.7711 29.7379 34.3033 29.7379 39.894C29.7379 45.4847 34.3484 50.0169 40.0358 50.0169C45.7231 50.0169 50.3337 45.4847 50.3337 39.894C50.3337 34.3033 45.7231 29.7711 40.0358 29.7711ZM31.7906 39.894C31.7906 35.4176 35.4821 31.7889 40.0358 31.7889C44.5895 31.7889 48.281 35.4176 48.281 39.894C48.281 44.3703 44.5895 47.9991 40.0358 47.9991C35.4821 47.9991 31.7906 44.3703 31.7906 39.894ZM43.1565 38.03C43.1565 36.7099 42.1659 35.7269 40.9534 35.3946C40.9396 34.9443 40.5681 34.5257 40.0359 34.5257C39.5038 34.5257 39.1322 34.9443 39.1185 35.3946C37.906 35.7269 36.9154 36.7099 36.9154 38.03C36.9154 39.672 38.442 40.7886 40.0359 40.7886C40.8638 40.7886 41.3209 41.3314 41.3209 41.7579C41.3209 42.1843 40.8638 42.7271 40.0359 42.7271C39.2081 42.7271 38.751 42.1843 38.751 41.7579C38.751 41.2979 38.3755 40.8632 37.8332 40.8632C37.2909 40.8632 36.9154 41.2979 36.9154 41.7579C36.9154 43.078 37.906 44.061 39.1185 44.3932C39.1322 44.8435 39.5038 45.2621 40.0359 45.2621C40.5681 45.2621 40.9396 44.8435 40.9534 44.3932C42.1659 44.061 43.1565 43.078 43.1565 41.7579C43.1565 40.1159 41.6299 38.9992 40.0359 38.9992C39.2081 38.9992 38.751 38.4564 38.751 38.03C38.751 37.6035 39.2081 37.0607 40.0359 37.0607C40.8638 37.0607 41.3209 37.6035 41.3209 38.03C41.3209 38.49 41.6964 38.9247 42.2387 38.9247C42.781 38.9247 43.1565 38.49 43.1565 38.03Z" fill="#06031F"/>
<defs>
<linearGradient id="paint0_linear_4_816" x1="76.7828" y1="288" x2="125.296" y2="20.954" gradientUnits="userSpaceOnUse">
<stop stop-color="#DDB36C"/>
<stop offset="0.375" stop-color="#FFCF7D"/>
<stop offset="0.62" stop-color="#C99132"/>
<stop offset="0.795" stop-color="#FFCC75"/>
<stop offset="0.995" stop-color="#A6782A"/>
</linearGradient>
</defs>
</svg>
