<svg width="64" height="64" viewBox="0 0 64 64" fill="none" xmlns="http://www.w3.org/2000/svg">
<rect width="64" height="64" rx="12" fill="url(#paint0_linear_4_822)"/>
<path d="M32.126 15.0981C28.4103 15.1162 24.8054 16.3664 21.8764 18.6529C18.9473 20.9394 16.8595 24.1329 15.94 27.7332L14.8153 26.0322C14.7088 25.8541 14.5674 25.6995 14.3995 25.5775C14.2316 25.4556 14.0408 25.3689 13.8385 25.3228C13.6362 25.2766 13.4267 25.2718 13.2225 25.3088C13.0183 25.3458 12.8238 25.4238 12.6506 25.538C12.4774 25.6523 12.3291 25.8004 12.2147 25.9735C12.1003 26.1466 12.0221 26.341 11.9849 26.5452C11.9477 26.7493 11.9522 26.9588 11.9981 27.1612C12.0441 27.3635 12.1306 27.5544 12.2523 27.7224L15.6327 32.8453C15.8675 33.1738 16.2137 33.4059 16.6069 33.4983C17.0083 33.5779 17.425 33.498 17.7685 33.2755L22.8391 29.8598C23.014 29.7506 23.165 29.6073 23.2834 29.4386C23.4017 29.2698 23.4849 29.079 23.5279 28.8774C23.571 28.6758 23.573 28.4676 23.534 28.2653C23.4949 28.0629 23.4155 27.8704 23.3005 27.6994C23.1856 27.5283 23.0373 27.3821 22.8647 27.2695C22.6921 27.1569 22.4985 27.0802 22.2956 27.0439C22.0927 27.0076 21.8846 27.0125 21.6836 27.0584C21.4827 27.1042 21.293 27.19 21.1259 27.3106L18.8195 28.8656C19.4333 26.3739 20.7352 24.105 22.5765 22.3176C24.4178 20.5302 26.7245 19.2963 29.2333 18.7568C31.7421 18.2173 34.3521 18.3939 36.7654 19.2664C39.1787 20.1388 41.2982 21.6721 42.882 23.6912C44.4658 25.7103 45.4502 28.1339 45.7229 30.6856C45.9955 33.2372 45.5454 35.8141 44.424 38.1223C43.3025 40.4305 41.5549 42.3769 39.3804 43.7396C37.2059 45.1023 34.6922 45.8263 32.126 45.8291C29.9262 45.8231 27.7604 45.2861 25.8126 44.2637C23.8648 43.2412 22.1927 41.7636 20.9384 39.9564C20.8261 39.7839 20.6802 39.6357 20.5095 39.5207C20.3388 39.4057 20.1468 39.3261 19.9447 39.2867C19.7427 39.2474 19.5348 39.249 19.3334 39.2915C19.132 39.3341 18.9412 39.4166 18.7723 39.5343C18.6034 39.652 18.4599 39.8025 18.3503 39.9767C18.2407 40.1509 18.1672 40.3454 18.1342 40.5486C18.1012 40.7518 18.1093 40.9595 18.1582 41.1595C18.207 41.3595 18.2955 41.5476 18.4185 41.7127C20.4576 44.6523 23.3859 46.8604 26.773 48.0123C30.1601 49.1642 33.8275 49.1993 37.236 48.1123C40.6445 47.0253 43.6145 44.8736 45.7094 41.9734C47.8043 39.0733 48.9136 35.5776 48.8744 32.0002C48.8895 27.5394 47.1347 23.2548 43.9949 20.0862C40.8551 16.9176 36.5867 15.1238 32.126 15.0981Z" fill="#06031F"/>
<path d="M31.9724 22.7041C31.5648 22.7041 31.174 22.8659 30.8858 23.1541C30.5977 23.4423 30.4358 23.8331 30.4358 24.2406V32.0002C30.4423 32.4063 30.6033 32.7948 30.886 33.0865L35.4957 37.7376C35.7849 38.0223 36.1739 38.1828 36.5798 38.1848C36.9857 38.1868 37.3763 38.0302 37.6683 37.7484C37.9576 37.4615 38.1211 37.0714 38.1228 36.664C38.1246 36.2565 37.9644 35.8651 37.6775 35.5757L33.5089 31.3686V24.2406C33.5089 23.8331 33.347 23.4423 33.0589 23.1541C32.7707 22.8659 32.3799 22.7041 31.9724 22.7041Z" fill="#06031F"/>
<defs>
<linearGradient id="paint0_linear_4_822" x1="76.7828" y1="288" x2="125.296" y2="20.954" gradientUnits="userSpaceOnUse">
<stop stop-color="#DDB36C"/>
<stop offset="0.375" stop-color="#FFCF7D"/>
<stop offset="0.62" stop-color="#C99132"/>
<stop offset="0.795" stop-color="#FFCC75"/>
<stop offset="0.995" stop-color="#A6782A"/>
</linearGradient>
</defs>
</svg>
