<svg width="36" height="36" viewBox="0 0 36 36" fill="none" xmlns="http://www.w3.org/2000/svg">
<path d="M11.3719 22V15.532L9.87188 15.928V14.584L12.0919 13.6H13.0999V22H11.3719ZM17.6136 22.144C17.0376 22.144 16.5136 22.04 16.0416 21.832C15.5776 21.624 15.2056 21.332 14.9256 20.956C14.6536 20.58 14.5176 20.14 14.5176 19.636C14.5176 19.3 14.5736 18.992 14.6856 18.712C14.8056 18.424 14.9696 18.176 15.1776 17.968C15.3856 17.752 15.6296 17.588 15.9096 17.476C15.5576 17.3 15.2696 17.06 15.0456 16.756C14.8296 16.444 14.7216 16.092 14.7216 15.7C14.7216 15.308 14.8296 14.944 15.0456 14.608C15.2696 14.264 15.5936 13.988 16.0176 13.78C16.4496 13.564 16.9816 13.456 17.6136 13.456C18.2536 13.456 18.7856 13.564 19.2096 13.78C19.6416 13.988 19.9656 14.264 20.1816 14.608C20.3976 14.944 20.5056 15.308 20.5056 15.7C20.5056 16.084 20.3936 16.436 20.1696 16.756C19.9536 17.068 19.6696 17.308 19.3176 17.476C19.6056 17.596 19.8536 17.764 20.0616 17.98C20.2696 18.188 20.4296 18.432 20.5416 18.712C20.6616 18.992 20.7216 19.3 20.7216 19.636C20.7216 20.14 20.5816 20.58 20.3016 20.956C20.0216 21.332 19.6496 21.624 19.1856 21.832C18.7216 22.04 18.1976 22.144 17.6136 22.144ZM17.6136 20.752C18.0936 20.752 18.4536 20.632 18.6936 20.392C18.9416 20.152 19.0656 19.852 19.0656 19.492C19.0656 19.1 18.9376 18.792 18.6816 18.568C18.4256 18.336 18.0696 18.22 17.6136 18.22C17.1576 18.22 16.7976 18.336 16.5336 18.568C16.2776 18.792 16.1496 19.1 16.1496 19.492C16.1496 19.852 16.2736 20.152 16.5216 20.392C16.7776 20.632 17.1416 20.752 17.6136 20.752ZM17.6136 16.996C18.0056 16.996 18.3096 16.896 18.5256 16.696C18.7496 16.488 18.8616 16.228 18.8616 15.916C18.8616 15.572 18.7536 15.304 18.5376 15.112C18.3216 14.912 18.0136 14.812 17.6136 14.812C17.2216 14.812 16.9176 14.912 16.7016 15.112C16.4936 15.304 16.3896 15.572 16.3896 15.916C16.3896 16.228 16.4936 16.488 16.7016 16.696C16.9176 16.896 17.2216 16.996 17.6136 16.996ZM24.0908 21.28V15.784H25.5068V21.28H24.0908ZM21.8468 19.228V17.824H27.7388V19.228H21.8468Z" fill="url(#paint0_linear_2_1563)"/>
<circle cx="18" cy="18" r="17.1617" stroke="url(#paint1_linear_2_1563)" stroke-width="1.67666"/>
<defs>
<linearGradient id="paint0_linear_2_1563" x1="24.3418" y1="15.4953" x2="18.3048" y2="29.7003" gradientUnits="userSpaceOnUse">
<stop offset="0.114212" stop-color="#AB865E"/>
<stop offset="0.297756" stop-color="#D8A56E"/>
<stop offset="0.485" stop-color="#453626"/>
<stop offset="0.775" stop-color="#FFC380"/>
<stop offset="0.8" stop-color="#6C5339"/>
</linearGradient>
<linearGradient id="paint1_linear_2_1563" x1="28.3192" y1="12.3645" x2="13.1417" y2="42.4385" gradientUnits="userSpaceOnUse">
<stop offset="0.114212" stop-color="#AB865E"/>
<stop offset="0.297756" stop-color="#D8A56E"/>
<stop offset="0.485" stop-color="#453626"/>
<stop offset="0.775" stop-color="#FFC380"/>
<stop offset="0.8" stop-color="#6C5339"/>
</linearGradient>
</defs>
</svg>
