<svg width="128" height="128" viewBox="0 0 128 128" fill="none" xmlns="http://www.w3.org/2000/svg">
<path d="M103.272 103.558H25.8496V104.381H103.272V103.558Z" fill="url(#paint0_linear_2_1855)"/>
<path d="M7.08008 81.6765V82.5024H57.528L55.9842 81.6765H7.08008ZM70.7798 81.6765L69.2366 82.5024H119.878V81.6765H70.7798Z" fill="url(#paint1_linear_2_1855)"/>
<path d="M55.0958 112.074C54.5266 111.943 53.9717 111.623 53.4769 111.313C53.7252 111.137 53.989 110.987 54.2721 110.87C56.0114 110.166 56.9401 110.762 56.9823 111.359C57.0109 111.763 56.6334 112.166 55.8265 112.166C55.6129 112.166 55.3696 112.138 55.0958 112.074ZM69.4712 111.359C69.514 110.762 70.4433 110.166 72.1845 110.87C72.4645 110.987 72.7314 111.138 72.9766 111.313C72.4831 111.623 71.9269 111.942 71.357 112.074C71.0833 112.138 70.84 112.166 70.6264 112.166C69.8194 112.166 69.442 111.762 69.4712 111.359ZM45.4556 112.567C42.4685 112.493 42.0787 109.523 44.6393 108.572C46.4047 107.908 48.8194 109.124 50.2881 110.07C50.0839 110.208 49.879 110.35 49.6748 110.494C48.7095 111.167 46.7026 112.569 45.5009 112.569C45.486 112.568 45.4711 112.568 45.4556 112.567ZM76.7775 110.493C76.5751 110.349 76.3702 110.208 76.1648 110.069C77.6322 109.123 80.0494 107.908 81.8149 108.572C84.3767 109.523 83.9844 112.493 80.9973 112.567C80.9824 112.567 80.9675 112.567 80.952 112.567C79.7515 112.568 77.7464 111.166 76.7775 110.493ZM75.5136 109.648L75.5012 109.642C74.2355 108.881 72.7854 108.229 71.303 108.005C70.308 107.855 69.239 107.895 68.3129 108.307C67.2663 108.775 66.401 109.755 66.4705 110.92C66.5593 112.364 67.807 113.68 69.9138 113.65C70.2031 113.641 70.1683 113.41 69.9399 113.414C67.342 113.57 65.7821 110.227 68.3799 108.928C69.1931 108.565 70.2186 108.565 71.0883 108.698C72.4105 108.898 73.7085 109.436 74.8593 110.088C74.6563 110.223 74.4521 110.359 74.246 110.495L73.9388 110.698C73.0654 110.233 72.1789 109.918 71.2652 109.899C70.7338 109.845 70.2012 109.93 69.7344 110.261C69.4116 110.49 69.1776 110.816 69.1341 111.204C69.1242 111.276 69.1279 111.349 69.1279 111.422V111.43L69.1341 111.478V111.481C69.1844 111.964 69.4662 112.323 69.9045 112.541C71.1454 113.164 72.4732 112.4 73.5297 111.795C74.7178 113.075 74.7637 115.583 73.133 116.682C71.8654 117.534 70.2087 117.269 68.8579 116.73C66.7318 115.882 65.152 113.871 63.5908 112.26L64.8683 110.939L63.2258 109.243L61.5846 110.939L62.8627 112.26C61.3015 113.871 59.7217 115.882 57.5968 116.73C56.243 117.269 54.5862 117.534 53.3186 116.682C51.6898 115.583 51.7357 113.075 52.9244 111.795C53.981 112.401 55.3075 113.164 56.5478 112.541C56.9848 112.323 57.2697 111.964 57.32 111.481L57.3218 111.478L57.325 111.43V111.422C57.325 111.349 57.3281 111.276 57.32 111.204C57.2741 110.816 57.0413 110.49 56.7172 110.261C56.2523 109.93 55.7203 109.845 55.1896 109.899C54.2746 109.918 53.3881 110.233 52.5154 110.698L52.2056 110.495C52.0014 110.359 51.7972 110.223 51.5923 110.088C52.745 109.435 54.043 108.898 55.3652 108.698C56.2343 108.565 57.2579 108.565 58.0742 108.928C60.6714 110.226 59.1102 113.57 56.513 113.414C56.2833 113.411 56.2486 113.641 56.5378 113.65C58.6447 113.68 59.8961 112.364 59.9805 110.92C60.0513 109.755 59.1847 108.775 58.1394 108.307C57.2132 107.895 56.1443 107.855 55.1511 108.005C53.6669 108.229 52.2174 108.881 50.9523 109.642L50.9399 109.648C46.8616 106.752 43.913 107.579 40.7776 108.406C37.8743 109.172 34.8109 109.938 30.542 107.746C35.1951 112.125 40.8012 109.21 43.2929 108.685C43.0806 108.91 42.908 109.167 42.7832 109.462C42.5132 110.101 42.5206 110.827 42.8118 111.458C43.327 112.582 44.5108 113.077 45.725 113.115C47.162 113.159 48.9554 111.858 50.0982 111.062C50.3719 110.87 50.6457 110.677 50.925 110.495C51.2143 110.688 51.5035 110.882 51.7959 111.074L51.8276 111.093C48.1676 113.349 44.7032 117.57 40.4331 112.584C41.3083 115.358 44.2116 116.175 46.1235 115.671C48.419 115.065 50.1199 113.226 52.0032 111.791C50.01 114.532 51.7568 117.986 55.2355 117.925C56.1381 117.909 57.0338 117.624 57.8234 117.306C59.7788 116.519 61.7882 114.304 63.2252 112.666C64.6635 114.304 66.6729 116.519 68.6288 117.306C69.4166 117.624 70.3154 117.909 71.2149 117.925C74.6948 117.986 76.441 114.532 74.4496 111.791C76.3324 113.226 78.0326 115.065 80.3263 115.671C82.2376 116.176 85.1427 115.358 86.0161 112.584C81.7466 117.57 78.2822 113.349 74.6241 111.093L74.6557 111.074C74.9469 110.882 75.2367 110.688 75.5266 110.495C75.8047 110.677 76.0797 110.87 76.3553 111.062C77.4963 111.858 79.2915 113.159 80.7254 113.115C81.9415 113.077 83.1246 112.582 83.6405 111.458C83.9298 110.826 83.9397 110.1 83.6684 109.462C83.5443 109.168 83.3711 108.91 83.16 108.685C85.6492 109.21 91.2571 112.125 95.9115 107.746C91.642 109.938 88.5786 109.172 85.6747 108.406C84.1973 108.016 82.7609 107.627 81.2289 107.627C79.5106 107.627 77.6701 108.117 75.5136 109.648Z" fill="url(#paint2_linear_2_1855)"/>
<path d="M38.6735 47.4192C38.9329 65.8993 53.1618 72.0294 63.3173 76.3508C73.4728 72.03 87.7029 65.8999 87.963 47.4192V34.6766C83.7543 33.756 80.2769 30.9128 78.5164 27.1248C73.245 24.919 68.0214 23.7451 62.8549 23.7451C57.8882 23.7451 52.975 24.8294 48.1182 27.1248C46.3578 30.9128 42.8803 33.7566 38.6729 34.6766V47.4192H38.6735ZM40.7518 36.2376C44.5781 34.9573 47.7818 32.2467 49.6589 28.6871C58.7362 24.6121 67.8525 25.0677 76.9999 28.7313C78.8808 32.2684 82.0727 34.9635 85.8829 36.2376V47.4198C85.8829 54.6896 83.529 60.7613 78.054 65.6684C73.7919 69.4862 68.5422 71.8751 63.3167 74.1095C58.0924 71.8751 52.8434 69.4862 48.5801 65.6684C43.1063 60.7613 40.7511 54.6896 40.7511 47.4198V36.2376H40.7518Z" fill="url(#paint3_linear_2_1855)"/>
<path d="M62.4799 72.6182L63.3191 72.9855L64.1603 72.6182C75.9837 67.4416 84.8474 61.5287 84.8474 47.4167V37.01L83.6686 36.4486C80.7554 35.0612 78.3016 32.8641 76.6132 30.1323L76.2407 29.5298L75.5728 29.2809C71.3337 27.6975 67.1008 26.8311 62.8703 26.8311C58.9348 26.8311 55.0011 27.5811 51.0674 29.2006L50.4367 29.4589L50.0847 30.039C48.3975 32.8131 45.9201 35.0469 42.9728 36.448L41.7939 37.0094V47.4161C41.7927 61.5293 50.6546 67.4423 62.4799 72.6182ZM43.871 38.3059C47.1721 36.7343 49.9593 34.2309 51.8632 31.1021C59.5177 27.9495 67.1361 28.3311 74.839 31.2079C76.7404 34.2882 79.5046 36.7517 82.7679 38.3059V47.4167C82.7679 60.8154 74.0116 66.0512 63.3185 70.7348C52.6267 66.0518 43.8704 60.8154 43.8704 47.4167V38.3059H43.871Z" fill="url(#paint4_linear_2_1855)"/>
<path d="M60.8506 78.9485L63.315 80.3539L65.78 78.9485L63.315 77.5449L60.8506 78.9485Z" fill="url(#paint5_linear_2_1855)"/>
<path d="M80.0425 73.9444C79.8992 73.9239 79.7551 73.9146 79.6105 73.9146C78.5049 73.9146 77.3777 74.4772 76.4925 75.0747C74.9338 76.1279 70.0218 78.9835 68.4121 79.9563C67.2054 80.6845 65.9862 81.4078 64.7559 82.0999L63.3189 81.2821L61.8818 82.0999C60.6527 81.4078 59.4342 80.6845 58.2287 79.9563C56.616 78.9835 51.7046 76.1279 50.1453 75.0747C49.1471 74.4 47.8373 73.7683 46.5958 73.945C45.1904 74.1417 44.2357 75.4326 44.4356 76.8393C44.6119 78.0841 45.7404 79.0893 46.9633 79.1366C48.0906 79.1777 49.2303 78.3331 49.7114 77.4474C49.9051 77.1069 49.8231 77.0154 49.5357 77.2992C48.9379 77.8887 47.8113 78.1563 46.9571 78.0555C46.4574 77.997 45.9447 77.786 45.5734 77.4405C44.3946 76.3395 45.1302 74.799 46.6865 74.8183C47.6896 74.8295 48.7647 75.3704 49.5835 75.915C51.1664 76.9687 56.0778 79.8412 57.7067 80.8233C58.7477 81.4507 59.798 82.0781 60.8607 82.6831L60.8545 82.6868L63.3195 84.091L65.7845 82.6868L65.7802 82.6831C66.8416 82.0781 67.8926 81.4507 68.9336 80.8233C70.5612 79.8412 75.4732 76.9681 77.0561 75.915C77.8743 75.3704 78.9494 74.8289 79.9538 74.8183C81.5088 74.799 82.2437 76.3395 81.0668 77.4405C80.6974 77.786 80.1835 77.9976 79.6844 78.0555C78.8296 78.1563 77.7011 77.8887 77.1033 77.2992C76.8171 77.0154 76.7358 77.1069 76.9307 77.4474C77.4099 78.3331 78.5496 79.1777 79.6751 79.1366C80.9023 79.0893 82.029 78.0835 82.2052 76.8393C82.4033 75.432 81.4485 74.1411 80.0425 73.9444Z" fill="url(#paint6_linear_2_1855)"/>
<path d="M56.7687 20.9112C56.7687 20.4543 56.4006 20.084 55.945 20.084C55.4888 20.084 55.1182 20.4543 55.1182 20.9112C55.1182 21.3668 55.4888 21.739 55.945 21.739C56.3994 21.739 56.7687 21.3668 56.7687 20.9112Z" fill="url(#paint7_linear_2_1855)"/>
<path d="M58.8241 20.1601C58.8241 19.7033 58.4547 19.3311 57.9985 19.3311C57.5422 19.3311 57.1729 19.7026 57.1729 20.1601C57.1729 20.6157 57.5422 20.9861 57.9985 20.9861C58.4547 20.9861 58.8241 20.6157 58.8241 20.1601Z" fill="url(#paint8_linear_2_1855)"/>
<path d="M71.5181 20.9112C71.5181 20.4543 71.1494 20.084 70.6938 20.084C70.2381 20.084 69.8682 20.4543 69.8682 20.9112C69.8682 21.3668 70.2381 21.739 70.6938 21.739C71.1494 21.739 71.5181 21.3668 71.5181 20.9112Z" fill="url(#paint9_linear_2_1855)"/>
<path d="M73.2688 20.2134C71.2713 18.5977 66.8677 17.6142 63.3176 17.5769C59.7681 17.6149 55.3645 18.5983 53.3682 20.2134L53.74 20.8533C55.9536 19.2742 60.0661 18.3126 63.3169 18.2728C66.5678 18.3126 70.6815 19.2742 72.8939 20.8533L73.2688 20.2134Z" fill="url(#paint10_linear_2_1855)"/>
<path d="M51.696 17.756C51.696 18.6417 52.413 19.3593 53.2969 19.3593C54.1803 19.3593 54.8954 18.6423 54.8954 17.756C54.8954 16.8703 54.1803 16.1514 53.2969 16.1514C53.2038 16.1514 53.1126 16.1595 53.0232 16.1751C51.0784 14.0091 52.1821 11.0339 55.238 11.1889C55.1393 12.3367 55.4236 13.6462 56.1108 15.018C55.8904 15.3081 55.7619 15.6709 55.7607 16.0643C55.7607 17.0278 56.5404 17.8077 57.4994 17.8077C58.4616 17.8077 59.2394 17.0272 59.2394 16.0643C59.2394 15.1126 58.4771 14.3383 57.5311 14.3209C56.3082 11.1454 57.7105 8.56919 61.5685 8.87978C61.7323 9.27376 62.0123 9.60675 62.3686 9.83269V12.9416C61.7938 13.307 61.4114 13.9524 61.4114 14.6863C61.4114 15.7742 62.2507 16.6662 63.3165 16.7452C64.3823 16.6662 65.2222 15.7742 65.2222 14.6863C65.2222 13.9518 64.8417 13.307 64.2662 12.9416V9.83269C64.6213 9.60613 64.9031 9.27376 65.0645 8.87978C68.9231 8.56919 70.3248 11.146 69.1025 14.3209C68.1553 14.3383 67.3948 15.1126 67.3948 16.0643C67.3948 17.0278 68.1714 17.8077 69.1336 17.8077C70.0926 17.8077 70.8723 17.0272 70.8723 16.0643C70.8723 15.6703 70.7419 15.3081 70.5234 15.018C71.2106 13.6468 71.4937 12.3367 71.3943 11.1889C74.4522 11.0339 75.5546 14.0091 73.6104 16.1751C73.5223 16.1595 73.431 16.1514 73.3379 16.1514C72.4546 16.1514 71.7382 16.8703 71.7382 17.756C71.7382 18.6417 72.4546 19.3593 73.3379 19.3593C74.2212 19.3593 74.9363 18.6423 74.9363 17.756C74.9363 17.6191 74.9196 17.4853 74.8873 17.357C78.952 12.8501 75.9004 8.75841 70.8133 9.3248C69.8996 7.79802 67.9616 6.90299 65.1005 7.1308C64.8286 5.87352 64.1396 4.20919 63.3177 4.14819C62.4952 4.20919 61.8087 5.87352 61.5368 7.1308C58.6758 6.90299 56.7353 7.79802 55.8222 9.3248C50.7351 8.75841 47.6853 12.8501 51.7475 17.357C51.7134 17.4853 51.696 17.6191 51.696 17.756Z" fill="url(#paint11_linear_2_1855)"/>
<path d="M60.9549 19.7378C60.9549 19.281 60.5831 18.9106 60.1274 18.9106C59.6718 18.9106 59.3037 19.281 59.3037 19.7378C59.3037 20.1934 59.6718 20.5656 60.1274 20.5656C60.5831 20.5656 60.9549 20.1934 60.9549 19.7378Z" fill="url(#paint12_linear_2_1855)"/>
<path d="M69.4622 20.1601C69.4622 19.7033 69.0935 19.3311 68.6372 19.3311C68.181 19.3311 67.8135 19.7026 67.8135 20.1601C67.8135 20.6157 68.181 20.9861 68.6372 20.9861C69.0935 20.9861 69.4622 20.6157 69.4622 20.1601Z" fill="url(#paint13_linear_2_1855)"/>
<path d="M63.0646 19.4799C63.0646 19.0231 62.6953 18.6521 62.2397 18.6521C61.7834 18.6521 61.4141 19.0224 61.4141 19.4799C61.4141 19.9355 61.7834 20.3071 62.2397 20.3071C62.6947 20.3071 63.0646 19.9355 63.0646 19.4799Z" fill="url(#paint14_linear_2_1855)"/>
<path d="M63.3158 21.4356C65.9478 21.4674 68.5605 22.0014 70.6357 23.0402L71.0349 22.3574C68.9976 21.3074 66.1676 20.7684 63.3158 20.7385C60.4641 20.7684 57.6359 21.3074 55.5986 22.3574L55.9965 23.0402C58.0717 22.002 60.6845 21.4655 63.3158 21.4356Z" fill="url(#paint15_linear_2_1855)"/>
<path d="M65.2235 19.4799C65.2235 19.0231 64.8554 18.6521 64.3997 18.6521C63.9435 18.6521 63.5723 19.0224 63.5723 19.4799C63.5723 19.9355 63.9435 20.3071 64.3997 20.3071C64.8554 20.3071 65.2235 19.9355 65.2235 19.4799Z" fill="url(#paint16_linear_2_1855)"/>
<path d="M67.3355 19.7378C67.3355 19.281 66.9662 18.9106 66.5105 18.9106C66.0543 18.9106 65.6855 19.281 65.6855 19.7378C65.6855 20.1934 66.0543 20.5656 66.5105 20.5656C66.9662 20.5656 67.3355 20.1934 67.3355 19.7378Z" fill="url(#paint17_linear_2_1855)"/>
<path d="M31.163 73.7605C25.3937 72.9769 22.1298 67.4287 24.6941 63.3905C27.2566 59.3522 31.3505 61.2761 32.3108 63.5797C33.2605 62.0666 33.3673 60.3456 32.3263 58.9365C33.9831 59.4468 35.9136 58.3246 36.6386 57.0686C35.7441 57.1302 33.6597 57.2248 32.9899 56.4947C36.9198 55.7746 38.8485 51.0885 34.9614 48.5833C36.5443 51.4899 35.0228 53.2775 32.0662 54.5024C32.006 53.1692 32.7627 51.6953 34.0247 51.1071C31.6714 50.6764 29.6763 52.0482 28.6545 53.4574C28.2976 52.5636 28.4031 51.6679 28.9879 50.7729C22.0615 51.3387 17.396 56.1462 19.0931 63.6145C19.0465 60.5566 21.3191 57.2404 23.8406 55.207C21.6078 58.3956 19.8709 59.8265 20.0788 65.4774C20.4699 62.8987 22.2527 59.2576 26.2839 56.9578C17.4121 64.2021 21.9001 73.2482 31.163 73.7605Z" fill="url(#paint18_linear_2_1855)"/>
<path d="M41.0459 68.6544C37.2618 68.5996 36.6206 66.3515 37.2239 65.3139C37.8279 64.2751 39.4282 63.7286 41.0204 65.2747C40.8206 63.5064 39.3779 62.5964 37.9167 62.5964C37.1463 62.5964 36.371 62.8491 35.7695 63.3632C34.6677 64.3056 34.1239 65.9419 34.6112 67.5091C35.5386 70.488 38.6734 71.0588 41.4531 71.1851C50.0226 71.576 47.6153 72.2376 60.1651 78.4387C48.6861 70.4687 47.8481 68.7571 41.0459 68.6544Z" fill="url(#paint19_linear_2_1855)"/>
<path d="M23.6804 72.6829C14.2481 66.4282 11.4249 54.0055 21.3855 48.4554C19.7908 48.1336 17.5523 48.588 15.723 49.9007C16.0656 47.1627 18.2352 44.7228 20.7474 43.9218C18.2966 43.2757 15.1724 44.4153 14.1072 45.9963C15.8819 41.0886 22.172 36.4603 27.4266 36.5281C31.7297 36.586 35.3356 40.5583 33.3834 44.5118C32.9904 45.306 32.3473 45.9963 31.4466 46.4786C30.1828 47.1154 28.5316 47.3768 27.197 46.7905L27.0976 46.7432C25.7487 46.1015 25.0007 44.4085 25.3527 43.0093C25.714 43.7705 26.6197 44.1695 27.4689 43.9062C28.3826 43.6224 28.8854 42.6782 28.5918 41.7987C28.3106 40.9585 27.4173 40.5234 26.5371 40.6827C26.3565 40.7157 26.1783 40.763 26.0132 40.8464C25.2478 41.2298 24.7183 41.8666 24.4396 42.6514C23.9728 43.9722 24.2776 45.6434 25.2211 46.7083C25.7208 47.2697 26.3341 47.7397 27.0225 48.0677C29.9227 49.3411 33.3138 47.9606 34.9222 45.5027C37.7814 41.1327 34.7875 34.3945 27.3968 34.5588C33.7068 32.4115 36.9521 27.0401 29.9121 25.2874C36.5871 32.2733 16.119 32.9953 12.2486 46.8129C9.47574 56.7136 13.7856 69.2154 23.6804 72.6829Z" fill="url(#paint20_linear_2_1855)"/>
<path d="M31.114 77.5021C36.0782 76.3407 37.707 76.5087 42.6737 77.6676C38.1881 75.3355 34.6604 75.6373 31.7596 75.9392C29.3722 76.1875 27.4094 76.4359 25.6855 75.2153C27.4497 80.3951 29.9383 79.777 34.2407 79.1272C36.9981 78.7108 40.4048 78.5091 44.94 79.5859C40.4656 77.5606 38.0137 76.9755 31.114 77.5021Z" fill="url(#paint21_linear_2_1855)"/>
<path d="M8.6566 67.7069C10.2526 69.3339 12.216 71.32 17.0529 72.6028C14.9479 71.3007 12.2787 70.4561 9.98501 66.4036C14.6587 71.2067 16.4197 71.1775 20.2206 72.7354C16.6333 70.5601 15.0392 68.8957 13.0627 65.8372C11.8969 64.0328 9.93038 62.5913 7.96695 62.5913C6.60315 62.5913 5.23998 63.2872 4.14746 65.0393C6.04882 64.0471 7.35985 66.3862 8.6566 67.7069Z" fill="url(#paint22_linear_2_1855)"/>
<path d="M14.5009 73.8094C12.3804 73.9289 10.5852 73.3208 10.8571 71.8867C9.24744 73.1969 10.1233 75.7874 12.8112 75.6946C11.3443 76.388 7.33739 77.5781 6.51055 74.7772C5.90035 79.9364 10.9371 79.2835 14.7765 77.4081C18.614 75.5316 23.6588 75.389 26.0059 80.4057C25.0729 72.5515 18.8381 73.5598 14.5009 73.8094Z" fill="url(#paint23_linear_2_1855)"/>
<path d="M32.4156 65.717C30.8843 65.9616 29.7023 67.5662 30.23 69.2735C29.0853 68.4662 28.4596 66.7589 29.2647 64.428C25.3428 66.8205 26.3689 69.6861 29.1828 71.5496C33.0575 74.1183 40.2626 75.3414 42.064 75.8026C38.8485 73.7972 29.8246 70.2127 32.4156 65.717Z" fill="url(#paint24_linear_2_1855)"/>
<path d="M100.53 56.9581C104.559 59.2579 106.343 62.899 106.734 65.4776C106.941 59.8268 105.203 58.3958 102.974 55.2072C105.493 57.2406 107.767 60.5569 107.719 63.6148C109.416 56.1464 104.753 51.3389 97.825 50.7731C98.4116 51.6682 98.5153 52.5638 98.1584 53.4576C97.136 52.0485 95.1421 50.6773 92.7901 51.1074C94.0515 51.6949 94.8057 53.1694 94.7486 54.5026C91.7907 53.2777 90.2686 51.4902 91.8515 48.5835C87.9638 51.0881 89.8912 55.7749 93.8237 56.495C93.1539 57.2251 91.0694 57.1305 90.1743 57.0689C90.8993 58.3249 92.8317 59.4477 94.4854 58.9367C93.445 60.3459 93.5543 62.0668 94.504 63.5799C95.4637 61.277 99.5569 59.3525 102.119 63.3907C104.682 67.4295 101.419 72.9777 95.6524 73.7607C104.91 73.2491 109.401 64.203 100.53 56.9581Z" fill="url(#paint25_linear_2_1855)"/>
<path d="M85.7666 68.6552C78.9644 68.7579 78.127 70.4696 66.6475 78.439C79.1984 72.2379 76.7899 71.5762 85.3594 71.1854C88.1373 71.059 91.2721 70.4883 92.2001 67.5094C92.6886 65.9421 92.1442 64.3058 91.043 63.3635C90.4415 62.85 89.6662 62.5967 88.8958 62.5967C87.4346 62.5967 85.992 63.5073 85.7927 65.2749C87.3837 63.7288 88.9834 64.2759 89.5886 65.3141C90.192 66.3523 89.5507 68.6005 85.7666 68.6552Z" fill="url(#paint26_linear_2_1855)"/>
<path d="M99.4151 34.5579C92.0263 34.3936 89.0318 41.1325 91.891 45.5018C93.5 47.9591 96.8911 49.3396 99.7913 48.0668C100.482 47.7388 101.094 47.2689 101.591 46.7075C102.538 45.6419 102.841 43.9713 102.374 42.6506C102.096 41.8657 101.567 41.229 100.799 40.8456C100.636 40.7622 100.459 40.7149 100.277 40.6819C99.3965 40.5225 98.5039 40.9576 98.2245 41.7979C97.929 42.6773 98.4318 43.6215 99.3456 43.9053C100.194 44.1686 101.099 43.7697 101.46 43.0085C101.814 44.4076 101.064 46.1012 99.7156 46.7423L99.6175 46.7896C98.2822 47.3759 96.6304 47.1145 95.3666 46.4778C94.4677 45.9954 93.8259 45.3045 93.4329 44.511C91.4769 40.5574 95.0872 36.5851 99.3872 36.5273C104.645 36.4594 110.933 41.0871 112.708 45.996C111.642 44.4151 108.519 43.2755 106.066 43.9215C108.58 44.7226 110.751 47.1624 111.09 49.9004C109.262 48.5878 107.024 48.1334 105.431 48.4552C115.39 54.0052 112.565 66.428 103.133 72.6826C113.027 69.2151 117.339 56.7134 114.564 46.8126C110.694 32.9951 90.2268 32.2731 96.9005 25.2871C89.8599 27.0392 93.1064 32.4106 99.4151 34.5579Z" fill="url(#paint27_linear_2_1855)"/>
<path d="M95.0541 75.9398C92.1539 75.6379 88.6262 75.3361 84.1394 77.6683C89.1054 76.5093 90.7343 76.3413 95.699 77.5027C88.7975 76.9761 86.3456 77.5612 81.873 79.5859C86.4083 78.5091 89.8149 78.7108 92.5717 79.1272C96.8741 79.777 99.3634 80.3951 101.127 75.2153C99.4037 76.4365 97.4415 76.1882 95.0541 75.9398Z" fill="url(#paint28_linear_2_1855)"/>
<path d="M118.845 62.5913C116.881 62.5913 114.915 64.0328 113.749 65.8372C111.771 68.8957 110.177 70.5601 106.59 72.7354C110.391 71.1775 112.155 71.2067 116.827 66.4036C114.535 70.4561 111.866 71.3007 109.759 72.6028C114.595 71.32 116.56 69.3339 118.154 67.7069C119.452 66.3862 120.764 64.0471 122.666 65.0399C121.574 63.2872 120.21 62.5919 118.845 62.5913Z" fill="url(#paint29_linear_2_1855)"/>
<path d="M114.002 75.6946C116.69 75.7874 117.569 73.1963 115.958 71.8867C116.23 73.3208 114.433 73.9289 112.314 73.8094C107.976 73.5604 101.74 72.5521 100.81 80.4057C103.155 75.389 108.201 75.5316 112.04 77.4081C115.876 79.2835 120.914 79.9364 120.304 74.7772C119.476 77.5781 115.471 76.388 114.002 75.6946Z" fill="url(#paint30_linear_2_1855)"/>
<path d="M97.5458 64.428C98.3528 66.7589 97.724 68.4662 96.5799 69.2735C97.1076 67.5662 95.9263 65.9616 94.3949 65.717C96.9871 70.2127 87.9614 73.7972 84.749 75.8026C86.5473 75.342 93.7536 74.1183 97.6284 71.5496C100.442 69.6867 101.47 66.8205 97.5458 64.428Z" fill="url(#paint31_linear_2_1855)"/>
<path d="M30.8818 34.3452C35.6579 33.9245 42.9728 32.1008 44.2441 26.6454C44.8165 24.1899 44.0244 21.3505 40.6096 20.2407C42.493 22.06 42.7382 25.3433 41.0988 26.9385C41.3204 25.0109 39.5444 22.6968 37.9168 22.5629C42.3583 28.1254 35.4562 32.5552 30.8818 34.3452Z" fill="url(#paint32_linear_2_1855)"/>
<path d="M95.7517 34.3458C91.1773 32.5552 84.274 28.1242 88.7167 22.5629C87.0891 22.6974 85.3131 25.0109 85.5353 26.9385C83.8959 25.3433 84.1405 22.06 86.0245 20.2407C82.6091 21.3505 81.8176 24.1893 82.3894 26.6454C83.6625 32.1014 90.9762 33.9251 95.7517 34.3458Z" fill="url(#paint33_linear_2_1855)"/>
<path d="M64.6129 40.2964H63.999V57.8758H64.6129V40.2964Z" fill="url(#paint34_linear_2_1855)"/>
<path d="M31.2939 86.8687C32.0714 86.8687 32.438 86.9297 33.6426 87.2202C33.8711 87.2813 34.0996 87.312 34.3281 87.312C34.6179 87.312 34.8472 87.2667 35.2285 87.1138V90.6616L34.6641 90.6763C34.5116 89.759 34.2978 89.1476 33.9014 88.5972C33.3066 87.7561 32.4216 87.2974 31.415 87.2974C30.2257 87.2975 29.2955 87.8933 28.7617 89.0093C28.2889 90.0033 28.0449 91.258 28.0449 92.7261C28.045 94.8513 28.5786 96.6708 29.4629 97.5884C29.9509 98.0777 30.6378 98.353 31.4004 98.353C31.8579 98.353 32.3913 98.2458 32.8945 98.0317C33.1843 97.9247 33.307 97.8487 33.5205 97.6499V95.0347C33.5205 93.7809 33.3829 93.643 32.1172 93.5972V93.1997H36.6162V93.5972C36.0672 93.6125 35.823 93.6741 35.6553 93.8423C35.4724 94.0105 35.4268 94.301 35.4268 95.2026V96.5024C35.4268 97.2974 35.4422 97.5426 35.4727 98.0317C34.7559 98.0929 34.4201 98.1546 33.6729 98.3687C32.59 98.6745 31.9646 98.7817 31.1562 98.7817C27.8314 98.7817 25.8486 96.6404 25.8486 93.0161C25.8487 89.2696 27.9844 86.8687 31.2939 86.8687ZM83.6123 96.1968C84.329 96.1968 84.8933 96.7624 84.8936 97.481C84.8936 98.1997 84.3139 98.7817 83.6123 98.7817C82.8956 98.7816 82.3164 98.1996 82.3164 97.481C82.3166 96.7625 82.8805 96.1969 83.6123 96.1968ZM97.9033 86.8687C99.5961 86.8687 101.061 87.5112 101.976 88.6733C102.814 89.7131 103.271 91.2115 103.271 92.8169C103.271 94.4379 102.814 95.9372 101.976 96.9771C101.061 98.1239 99.5961 98.7807 97.9033 98.7808C96.2105 98.7808 94.7153 98.1239 93.8154 96.9771C92.9918 95.9372 92.5195 94.4226 92.5195 92.8169C92.5196 91.2115 92.9768 89.7437 93.8154 88.6733C94.7 87.5264 96.1951 86.8687 97.9033 86.8687ZM52.2686 87.48C51.6432 87.5259 51.4447 87.5722 51.2617 87.7251C51.0787 87.8474 50.9873 88.0768 50.9873 88.3521C50.9873 88.6425 51.0478 89.0401 51.2002 89.6362L52.7871 96.2427L55.3643 87.312H56.7373L59.0859 96.1968L60.7178 89.9272C60.855 89.4226 60.9307 88.902 60.9307 88.5503C60.9305 88.0765 60.7024 87.755 60.2451 87.6021C60.0469 87.5409 59.8177 87.5106 59.4365 87.48V87.0981H63.2949V87.48C62.2274 87.6329 61.831 88.1378 61.3125 90.0796L59.0098 98.5981H57.8047L55.3486 89.5142L52.665 98.5981H51.4141L49.1416 89.4683C48.9128 88.5813 48.7144 88.1068 48.4551 87.8315C48.2721 87.633 48.0433 87.5411 47.5557 87.48V87.0981H52.2686V87.48ZM78.8438 95.9067V90.1567C78.8438 89.0101 78.7671 88.444 78.5537 88.0923C78.3249 87.6947 78.0044 87.5571 77.2266 87.5112V87.0981H81.0859V87.5112C80.3539 87.5418 80.0331 87.6947 79.7891 88.0923C79.5604 88.4593 79.4688 89.0709 79.4688 90.0493V98.5981H78.3398L71.5381 88.8413V95.6001C71.5381 97.6186 71.8126 98.047 73.124 98.1235V98.5366H69.2959V98.1235C70.5923 98.0624 70.9131 97.5578 70.9131 95.478V89.4067C70.9131 87.9084 70.6534 87.5874 69.4336 87.4956V87.0981H72.6211L78.8438 95.9067ZM42.0635 87.0981C45.0832 87.0982 46.4404 87.9086 46.4404 89.6978C46.4404 91.3186 45.4945 92.0989 43.1611 92.3589V92.4653C45.6013 92.5877 46.8369 93.5818 46.8369 95.4321C46.8369 97.6342 45.3878 98.5366 41.8037 98.5366H37.29V98.1392C38.525 98.1085 38.6621 97.9551 38.6621 96.5483V89.0854C38.6621 87.6791 38.5096 87.5109 37.29 87.4956V87.0981H42.0635ZM68.6299 87.4956C67.3643 87.5415 67.2422 87.6943 67.2422 89.0854V96.5483C67.2422 97.9552 67.3798 98.0933 68.6914 98.1392V98.5366H63.8105V98.1392C65.1374 98.0933 65.2598 97.9552 65.2598 96.5483V89.0854C65.2597 87.6943 65.1368 87.5415 63.8711 87.4956V87.0981H68.6299V87.4956ZM91.2588 87.4956C89.993 87.5415 89.8701 87.6943 89.8701 89.0854V96.5483C89.8701 97.9552 90.0077 98.0933 91.3193 98.1392V98.5366H86.4385V98.1392C87.7654 98.0933 87.8877 97.9552 87.8877 96.5483V89.0854C87.8877 87.6943 87.7656 87.5415 86.5 87.4956V87.0981H91.2588V87.4956ZM97.9033 87.2817C96.8205 87.2817 96.0115 87.7711 95.5234 88.7192C94.9898 89.759 94.7461 91.0587 94.7461 92.8169C94.7461 94.6061 94.9896 95.876 95.5234 96.9312C96.0115 97.8792 96.8205 98.3687 97.9033 98.3687C98.9706 98.3685 99.7786 97.8789 100.267 96.9312C100.8 95.8913 101.045 94.6214 101.045 92.8169C101.045 91.028 100.8 89.759 100.267 88.7192C99.7634 87.7559 98.986 87.2818 97.9033 87.2817ZM40.6299 98.0933H41.7891C43.6952 98.0932 44.6562 97.1755 44.6562 95.356C44.6562 94.3314 44.3055 93.5205 43.665 93.0923C43.2685 92.8323 42.6125 92.6792 41.8652 92.6792H40.6299V98.0933ZM40.6299 92.1899H41.9111C43.497 92.1898 44.3359 91.3644 44.3359 89.7896C44.3359 88.2909 43.4814 87.5415 41.8037 87.5415H40.6299V92.1899Z" fill="url(#paint35_linear_2_1855)"/>
<path d="M60.2485 43.268V47.4571H59.9242C59.5328 46.312 58.9456 45.4414 58.1627 44.8455C57.3798 44.2496 56.5239 43.9516 55.595 43.9516C54.7069 43.9516 53.9678 44.2028 53.3778 44.7053C52.7877 45.2019 52.3699 45.8971 52.1245 46.791C51.8792 47.6849 51.7565 48.6022 51.7565 49.5428C51.7565 50.6821 51.8908 51.6812 52.1596 52.54C52.4283 53.3989 52.8607 54.0299 53.4566 54.433C54.0584 54.8361 54.7712 55.0377 55.595 55.0377C55.8812 55.0377 56.1734 55.0085 56.4713 54.95C56.7751 54.8858 57.0848 54.7952 57.4003 54.6784V52.207C57.4003 51.7396 57.3682 51.4387 57.3039 51.3043C57.2396 51.1641 57.1052 51.0385 56.9008 50.9275C56.7021 50.8165 56.4596 50.761 56.1734 50.761H55.8666V50.4367H61.6419V50.761C61.2037 50.7902 60.897 50.8516 60.7217 50.945C60.5523 51.0327 60.4208 51.1817 60.3274 51.392C60.2748 51.503 60.2485 51.7747 60.2485 52.207V54.6784C59.489 55.0172 58.6973 55.2714 57.8735 55.4408C57.0556 55.6161 56.2055 55.7037 55.3233 55.7037C54.1957 55.7037 53.258 55.5518 52.5101 55.248C51.7682 54.9384 51.1109 54.5352 50.5383 54.0386C49.9716 53.5362 49.5276 52.9724 49.2062 52.3472C48.7973 51.541 48.5928 50.6383 48.5928 49.6392C48.5928 47.8515 49.2208 46.3412 50.477 45.1084C51.7331 43.8757 53.3135 43.2593 55.2181 43.2593C55.8082 43.2593 56.3399 43.306 56.8131 43.3995C57.0702 43.4462 57.485 43.5806 58.0576 43.8026C58.636 44.0188 58.9778 44.1269 59.0829 44.1269C59.2465 44.1269 59.3984 44.0685 59.5386 43.9516C59.6788 43.8289 59.8074 43.6011 59.9242 43.268H60.2485Z" fill="url(#paint36_linear_2_1855)"/>
<path d="M74.5696 49.1222C75.6972 49.3851 76.4889 49.7035 76.9446 50.0774C77.5989 50.6091 77.9261 51.2985 77.9261 52.1457C77.9261 53.0396 77.5668 53.7786 76.8482 54.3629C75.966 55.0698 74.6835 55.4233 73.0009 55.4233H66.9627V55.099C67.5119 55.099 67.8829 55.0494 68.0757 54.95C68.2744 54.8449 68.4117 54.7105 68.4876 54.5469C68.5694 54.3833 68.6103 53.9802 68.6103 53.3375V45.6255C68.6103 44.9828 68.5694 44.5797 68.4876 44.4161C68.4117 44.2467 68.2744 44.1123 68.0757 44.013C67.8771 43.9136 67.5061 43.864 66.9627 43.864V43.5397H72.6591C74.0204 43.5397 74.9844 43.6624 75.5511 43.9078C76.1179 44.1473 76.5648 44.5096 76.892 44.9945C77.2192 45.4736 77.3828 45.9848 77.3828 46.5281C77.3828 47.1007 77.1753 47.6119 76.7605 48.0618C76.3457 48.5058 75.6154 48.8593 74.5696 49.1222ZM71.3796 48.8856C72.2093 48.8856 72.8198 48.7921 73.2112 48.6051C73.6085 48.4182 73.9123 48.1553 74.1227 47.8164C74.333 47.4775 74.4382 47.0452 74.4382 46.5194C74.4382 45.9936 74.333 45.5641 74.1227 45.2311C73.9182 44.8922 73.6231 44.6352 73.2375 44.4599C72.8519 44.2846 72.2326 44.1999 71.3796 44.2058V48.8856ZM71.3796 49.5691V53.3813L71.3709 53.8195C71.3709 54.135 71.4497 54.3746 71.6075 54.5382C71.7711 54.6959 72.0106 54.7748 72.3261 54.7748C72.7935 54.7748 73.2229 54.6725 73.6144 54.468C74.0117 54.2577 74.3155 53.9568 74.5258 53.5654C74.7361 53.1681 74.8413 52.727 74.8413 52.2421C74.8413 51.687 74.7128 51.1904 74.4557 50.7522C74.1986 50.3082 73.8451 49.9986 73.3953 49.8233C72.9454 49.648 72.2735 49.5633 71.3796 49.5691Z" fill="url(#paint37_linear_2_1855)"/>
<defs>
<linearGradient id="paint0_linear_2_1855" x1="5.0951" y1="103.969" x2="117.685" y2="103.969" gradientUnits="userSpaceOnUse">
<stop stop-color="#C89752"/>
<stop offset="0.066468" stop-color="#C09B68"/>
<stop offset="0.125" stop-color="#EED9B7"/>
<stop offset="0.306859" stop-color="#F1C592"/>
<stop offset="0.493535" stop-color="#B48256"/>
<stop offset="0.654363" stop-color="#AB865E"/>
<stop offset="0.755" stop-color="#9A7C48"/>
<stop offset="0.912967" stop-color="#C18F59"/>
<stop offset="1" stop-color="#997538"/>
</linearGradient>
<linearGradient id="paint1_linear_2_1855" x1="7.08008" y1="82.0895" x2="119.878" y2="82.0895" gradientUnits="userSpaceOnUse">
<stop stop-color="#C89752"/>
<stop offset="0.066468" stop-color="#C09B68"/>
<stop offset="0.125" stop-color="#EED9B7"/>
<stop offset="0.306859" stop-color="#F1C592"/>
<stop offset="0.493535" stop-color="#B48256"/>
<stop offset="0.654363" stop-color="#AB865E"/>
<stop offset="0.755" stop-color="#9A7C48"/>
<stop offset="0.912967" stop-color="#C18F59"/>
<stop offset="1" stop-color="#997538"/>
</linearGradient>
<linearGradient id="paint2_linear_2_1855" x1="30.542" y1="112.776" x2="95.9115" y2="112.776" gradientUnits="userSpaceOnUse">
<stop stop-color="#C89752"/>
<stop offset="0.066468" stop-color="#C09B68"/>
<stop offset="0.125" stop-color="#EED9B7"/>
<stop offset="0.306859" stop-color="#F1C592"/>
<stop offset="0.493535" stop-color="#B48256"/>
<stop offset="0.654363" stop-color="#AB865E"/>
<stop offset="0.755" stop-color="#9A7C48"/>
<stop offset="0.912967" stop-color="#C18F59"/>
<stop offset="1" stop-color="#997538"/>
</linearGradient>
<linearGradient id="paint3_linear_2_1855" x1="38.6729" y1="50.048" x2="87.963" y2="50.048" gradientUnits="userSpaceOnUse">
<stop stop-color="#C89752"/>
<stop offset="0.066468" stop-color="#C09B68"/>
<stop offset="0.125" stop-color="#EED9B7"/>
<stop offset="0.306859" stop-color="#F1C592"/>
<stop offset="0.493535" stop-color="#B48256"/>
<stop offset="0.654363" stop-color="#AB865E"/>
<stop offset="0.755" stop-color="#9A7C48"/>
<stop offset="0.912967" stop-color="#C18F59"/>
<stop offset="1" stop-color="#997538"/>
</linearGradient>
<linearGradient id="paint4_linear_2_1855" x1="41.7939" y1="49.9083" x2="84.8474" y2="49.9083" gradientUnits="userSpaceOnUse">
<stop stop-color="#C89752"/>
<stop offset="0.066468" stop-color="#C09B68"/>
<stop offset="0.125" stop-color="#EED9B7"/>
<stop offset="0.306859" stop-color="#F1C592"/>
<stop offset="0.493535" stop-color="#B48256"/>
<stop offset="0.654363" stop-color="#AB865E"/>
<stop offset="0.755" stop-color="#9A7C48"/>
<stop offset="0.912967" stop-color="#C18F59"/>
<stop offset="1" stop-color="#997538"/>
</linearGradient>
<linearGradient id="paint5_linear_2_1855" x1="60.8506" y1="78.9494" x2="65.78" y2="78.9494" gradientUnits="userSpaceOnUse">
<stop stop-color="#C89752"/>
<stop offset="0.066468" stop-color="#C09B68"/>
<stop offset="0.125" stop-color="#EED9B7"/>
<stop offset="0.306859" stop-color="#F1C592"/>
<stop offset="0.493535" stop-color="#B48256"/>
<stop offset="0.654363" stop-color="#AB865E"/>
<stop offset="0.755" stop-color="#9A7C48"/>
<stop offset="0.912967" stop-color="#C18F59"/>
<stop offset="1" stop-color="#997538"/>
</linearGradient>
<linearGradient id="paint6_linear_2_1855" x1="44.4092" y1="79.0028" x2="82.2312" y2="79.0028" gradientUnits="userSpaceOnUse">
<stop stop-color="#C89752"/>
<stop offset="0.066468" stop-color="#C09B68"/>
<stop offset="0.125" stop-color="#EED9B7"/>
<stop offset="0.306859" stop-color="#F1C592"/>
<stop offset="0.493535" stop-color="#B48256"/>
<stop offset="0.654363" stop-color="#AB865E"/>
<stop offset="0.755" stop-color="#9A7C48"/>
<stop offset="0.912967" stop-color="#C18F59"/>
<stop offset="1" stop-color="#997538"/>
</linearGradient>
<linearGradient id="paint7_linear_2_1855" x1="55.1182" y1="20.9115" x2="56.7687" y2="20.9115" gradientUnits="userSpaceOnUse">
<stop stop-color="#C89752"/>
<stop offset="0.066468" stop-color="#C09B68"/>
<stop offset="0.125" stop-color="#EED9B7"/>
<stop offset="0.306859" stop-color="#F1C592"/>
<stop offset="0.493535" stop-color="#B48256"/>
<stop offset="0.654363" stop-color="#AB865E"/>
<stop offset="0.755" stop-color="#9A7C48"/>
<stop offset="0.912967" stop-color="#C18F59"/>
<stop offset="1" stop-color="#997538"/>
</linearGradient>
<linearGradient id="paint8_linear_2_1855" x1="57.1729" y1="20.1586" x2="58.8241" y2="20.1586" gradientUnits="userSpaceOnUse">
<stop stop-color="#C89752"/>
<stop offset="0.066468" stop-color="#C09B68"/>
<stop offset="0.125" stop-color="#EED9B7"/>
<stop offset="0.306859" stop-color="#F1C592"/>
<stop offset="0.493535" stop-color="#B48256"/>
<stop offset="0.654363" stop-color="#AB865E"/>
<stop offset="0.755" stop-color="#9A7C48"/>
<stop offset="0.912967" stop-color="#C18F59"/>
<stop offset="1" stop-color="#997538"/>
</linearGradient>
<linearGradient id="paint9_linear_2_1855" x1="69.8682" y1="20.9115" x2="71.5181" y2="20.9115" gradientUnits="userSpaceOnUse">
<stop stop-color="#C89752"/>
<stop offset="0.066468" stop-color="#C09B68"/>
<stop offset="0.125" stop-color="#EED9B7"/>
<stop offset="0.306859" stop-color="#F1C592"/>
<stop offset="0.493535" stop-color="#B48256"/>
<stop offset="0.654363" stop-color="#AB865E"/>
<stop offset="0.755" stop-color="#9A7C48"/>
<stop offset="0.912967" stop-color="#C18F59"/>
<stop offset="1" stop-color="#997538"/>
</linearGradient>
<linearGradient id="paint10_linear_2_1855" x1="53.3682" y1="19.2151" x2="73.2688" y2="19.2151" gradientUnits="userSpaceOnUse">
<stop stop-color="#C89752"/>
<stop offset="0.066468" stop-color="#C09B68"/>
<stop offset="0.125" stop-color="#EED9B7"/>
<stop offset="0.306859" stop-color="#F1C592"/>
<stop offset="0.493535" stop-color="#B48256"/>
<stop offset="0.654363" stop-color="#AB865E"/>
<stop offset="0.755" stop-color="#9A7C48"/>
<stop offset="0.912967" stop-color="#C18F59"/>
<stop offset="1" stop-color="#997538"/>
</linearGradient>
<linearGradient id="paint11_linear_2_1855" x1="49.8662" y1="11.7538" x2="76.7699" y2="11.7538" gradientUnits="userSpaceOnUse">
<stop stop-color="#BCA687"/>
<stop offset="0.066468" stop-color="#B8A284"/>
<stop offset="0.125" stop-color="#E2C7A4"/>
<stop offset="0.306859" stop-color="#DABC98"/>
<stop offset="0.99" stop-color="#B79A7A"/>
</linearGradient>
<linearGradient id="paint12_linear_2_1855" x1="59.3037" y1="19.7381" x2="60.9549" y2="19.7381" gradientUnits="userSpaceOnUse">
<stop stop-color="#C89752"/>
<stop offset="0.066468" stop-color="#C09B68"/>
<stop offset="0.125" stop-color="#EED9B7"/>
<stop offset="0.306859" stop-color="#F1C592"/>
<stop offset="0.493535" stop-color="#B48256"/>
<stop offset="0.654363" stop-color="#AB865E"/>
<stop offset="0.755" stop-color="#9A7C48"/>
<stop offset="0.912967" stop-color="#C18F59"/>
<stop offset="1" stop-color="#997538"/>
</linearGradient>
<linearGradient id="paint13_linear_2_1855" x1="67.8135" y1="20.1586" x2="69.4622" y2="20.1586" gradientUnits="userSpaceOnUse">
<stop stop-color="#C89752"/>
<stop offset="0.066468" stop-color="#C09B68"/>
<stop offset="0.125" stop-color="#EED9B7"/>
<stop offset="0.306859" stop-color="#F1C592"/>
<stop offset="0.493535" stop-color="#B48256"/>
<stop offset="0.654363" stop-color="#AB865E"/>
<stop offset="0.755" stop-color="#9A7C48"/>
<stop offset="0.912967" stop-color="#C18F59"/>
<stop offset="1" stop-color="#997538"/>
</linearGradient>
<linearGradient id="paint14_linear_2_1855" x1="61.4141" y1="19.4796" x2="63.0646" y2="19.4796" gradientUnits="userSpaceOnUse">
<stop stop-color="#C89752"/>
<stop offset="0.066468" stop-color="#C09B68"/>
<stop offset="0.125" stop-color="#EED9B7"/>
<stop offset="0.306859" stop-color="#F1C592"/>
<stop offset="0.493535" stop-color="#B48256"/>
<stop offset="0.654363" stop-color="#AB865E"/>
<stop offset="0.755" stop-color="#9A7C48"/>
<stop offset="0.912967" stop-color="#C18F59"/>
<stop offset="1" stop-color="#997538"/>
</linearGradient>
<linearGradient id="paint15_linear_2_1855" x1="55.5986" y1="21.8894" x2="71.0349" y2="21.8894" gradientUnits="userSpaceOnUse">
<stop stop-color="#C89752"/>
<stop offset="0.066468" stop-color="#C09B68"/>
<stop offset="0.125" stop-color="#EED9B7"/>
<stop offset="0.306859" stop-color="#F1C592"/>
<stop offset="0.493535" stop-color="#B48256"/>
<stop offset="0.654363" stop-color="#AB865E"/>
<stop offset="0.755" stop-color="#9A7C48"/>
<stop offset="0.912967" stop-color="#C18F59"/>
<stop offset="1" stop-color="#997538"/>
</linearGradient>
<linearGradient id="paint16_linear_2_1855" x1="63.5723" y1="19.4796" x2="65.2235" y2="19.4796" gradientUnits="userSpaceOnUse">
<stop stop-color="#BCA687"/>
<stop offset="0.066468" stop-color="#B8A284"/>
<stop offset="0.125" stop-color="#E2C7A4"/>
<stop offset="0.306859" stop-color="#DABC98"/>
<stop offset="0.493535" stop-color="#AB8F76"/>
<stop offset="0.654363" stop-color="#A68B6E"/>
<stop offset="0.755" stop-color="#8F7E61"/>
<stop offset="0.912967" stop-color="#B79A7A"/>
<stop offset="1" stop-color="#8F7E61"/>
</linearGradient>
<linearGradient id="paint17_linear_2_1855" x1="65.6855" y1="19.7381" x2="67.3355" y2="19.7381" gradientUnits="userSpaceOnUse">
<stop stop-color="#C89752"/>
<stop offset="0.066468" stop-color="#C09B68"/>
<stop offset="0.125" stop-color="#EED9B7"/>
<stop offset="0.306859" stop-color="#F1C592"/>
<stop offset="0.493535" stop-color="#B48256"/>
<stop offset="0.654363" stop-color="#AB865E"/>
<stop offset="0.755" stop-color="#9A7C48"/>
<stop offset="0.912967" stop-color="#C18F59"/>
<stop offset="1" stop-color="#997538"/>
</linearGradient>
<linearGradient id="paint18_linear_2_1855" x1="18.7432" y1="61.1719" x2="37.0827" y2="61.1719" gradientUnits="userSpaceOnUse">
<stop stop-color="#C89752"/>
<stop offset="0.066468" stop-color="#C09B68"/>
<stop offset="0.125" stop-color="#EED9B7"/>
<stop offset="0.306859" stop-color="#F1C592"/>
<stop offset="0.493535" stop-color="#B48256"/>
<stop offset="0.654363" stop-color="#AB865E"/>
<stop offset="0.755" stop-color="#9A7C48"/>
<stop offset="0.912967" stop-color="#C18F59"/>
<stop offset="1" stop-color="#997538"/>
</linearGradient>
<linearGradient id="paint19_linear_2_1855" x1="34.4316" y1="70.5176" x2="60.1651" y2="70.5176" gradientUnits="userSpaceOnUse">
<stop stop-color="#C89752"/>
<stop offset="0.066468" stop-color="#C09B68"/>
<stop offset="0.125" stop-color="#EED9B7"/>
<stop offset="0.306859" stop-color="#F1C592"/>
<stop offset="0.493535" stop-color="#B48256"/>
<stop offset="0.654363" stop-color="#AB865E"/>
<stop offset="0.755" stop-color="#9A7C48"/>
<stop offset="0.912967" stop-color="#C18F59"/>
<stop offset="1" stop-color="#997538"/>
</linearGradient>
<linearGradient id="paint20_linear_2_1855" x1="11.4229" y1="48.9851" x2="35.992" y2="48.9851" gradientUnits="userSpaceOnUse">
<stop stop-color="#C89752"/>
<stop offset="0.066468" stop-color="#C09B68"/>
<stop offset="0.125" stop-color="#EED9B7"/>
<stop offset="0.306859" stop-color="#F1C592"/>
<stop offset="0.493535" stop-color="#B48256"/>
<stop offset="0.654363" stop-color="#AB865E"/>
<stop offset="0.755" stop-color="#9A7C48"/>
<stop offset="0.912967" stop-color="#C18F59"/>
<stop offset="1" stop-color="#997538"/>
</linearGradient>
<linearGradient id="paint21_linear_2_1855" x1="25.6855" y1="77.4006" x2="44.94" y2="77.4006" gradientUnits="userSpaceOnUse">
<stop stop-color="#C89752"/>
<stop offset="0.066468" stop-color="#C09B68"/>
<stop offset="0.125" stop-color="#EED9B7"/>
<stop offset="0.306859" stop-color="#F1C592"/>
<stop offset="0.493535" stop-color="#B48256"/>
<stop offset="0.654363" stop-color="#AB865E"/>
<stop offset="0.755" stop-color="#9A7C48"/>
<stop offset="0.912967" stop-color="#C18F59"/>
<stop offset="1" stop-color="#997538"/>
</linearGradient>
<linearGradient id="paint22_linear_2_1855" x1="4.14746" y1="67.6634" x2="20.2206" y2="67.6634" gradientUnits="userSpaceOnUse">
<stop stop-color="#C89752"/>
<stop offset="0.066468" stop-color="#C09B68"/>
<stop offset="0.125" stop-color="#EED9B7"/>
<stop offset="0.306859" stop-color="#F1C592"/>
<stop offset="0.493535" stop-color="#B48256"/>
<stop offset="0.654363" stop-color="#AB865E"/>
<stop offset="0.755" stop-color="#9A7C48"/>
<stop offset="0.912967" stop-color="#C18F59"/>
<stop offset="1" stop-color="#997538"/>
</linearGradient>
<linearGradient id="paint23_linear_2_1855" x1="6.45996" y1="76.1462" x2="26.0059" y2="76.1462" gradientUnits="userSpaceOnUse">
<stop stop-color="#C89752"/>
<stop offset="0.066468" stop-color="#C09B68"/>
<stop offset="0.125" stop-color="#EED9B7"/>
<stop offset="0.306859" stop-color="#F1C592"/>
<stop offset="0.493535" stop-color="#B48256"/>
<stop offset="0.654363" stop-color="#AB865E"/>
<stop offset="0.755" stop-color="#9A7C48"/>
<stop offset="0.912967" stop-color="#C18F59"/>
<stop offset="1" stop-color="#997538"/>
</linearGradient>
<linearGradient id="paint24_linear_2_1855" x1="26.6855" y1="70.1153" x2="42.064" y2="70.1153" gradientUnits="userSpaceOnUse">
<stop stop-color="#C89752"/>
<stop offset="0.066468" stop-color="#C09B68"/>
<stop offset="0.125" stop-color="#EED9B7"/>
<stop offset="0.306859" stop-color="#F1C592"/>
<stop offset="0.493535" stop-color="#B48256"/>
<stop offset="0.654363" stop-color="#AB865E"/>
<stop offset="0.755" stop-color="#9A7C48"/>
<stop offset="0.912967" stop-color="#C18F59"/>
<stop offset="1" stop-color="#997538"/>
</linearGradient>
<linearGradient id="paint25_linear_2_1855" x1="89.7295" y1="61.1721" x2="108.069" y2="61.1721" gradientUnits="userSpaceOnUse">
<stop stop-color="#C89752"/>
<stop offset="0.066468" stop-color="#C09B68"/>
<stop offset="0.125" stop-color="#EED9B7"/>
<stop offset="0.306859" stop-color="#F1C592"/>
<stop offset="0.493535" stop-color="#B48256"/>
<stop offset="0.654363" stop-color="#AB865E"/>
<stop offset="0.755" stop-color="#9A7C48"/>
<stop offset="0.912967" stop-color="#C18F59"/>
<stop offset="1" stop-color="#997538"/>
</linearGradient>
<linearGradient id="paint26_linear_2_1855" x1="66.6475" y1="70.5178" x2="92.3803" y2="70.5178" gradientUnits="userSpaceOnUse">
<stop stop-color="#C89752"/>
<stop offset="0.066468" stop-color="#C09B68"/>
<stop offset="0.125" stop-color="#EED9B7"/>
<stop offset="0.306859" stop-color="#F1C592"/>
<stop offset="0.493535" stop-color="#B48256"/>
<stop offset="0.654363" stop-color="#AB865E"/>
<stop offset="0.755" stop-color="#9A7C48"/>
<stop offset="0.912967" stop-color="#C18F59"/>
<stop offset="1" stop-color="#997538"/>
</linearGradient>
<linearGradient id="paint27_linear_2_1855" x1="90.8213" y1="48.9849" x2="115.391" y2="48.9849" gradientUnits="userSpaceOnUse">
<stop stop-color="#C89752"/>
<stop offset="0.066468" stop-color="#C09B68"/>
<stop offset="0.125" stop-color="#EED9B7"/>
<stop offset="0.306859" stop-color="#F1C592"/>
<stop offset="0.493535" stop-color="#B48256"/>
<stop offset="0.654363" stop-color="#AB865E"/>
<stop offset="0.755" stop-color="#9A7C48"/>
<stop offset="0.912967" stop-color="#C18F59"/>
<stop offset="1" stop-color="#997538"/>
</linearGradient>
<linearGradient id="paint28_linear_2_1855" x1="81.873" y1="77.4006" x2="101.127" y2="77.4006" gradientUnits="userSpaceOnUse">
<stop stop-color="#C89752"/>
<stop offset="0.066468" stop-color="#C09B68"/>
<stop offset="0.125" stop-color="#EED9B7"/>
<stop offset="0.306859" stop-color="#F1C592"/>
<stop offset="0.493535" stop-color="#B48256"/>
<stop offset="0.654363" stop-color="#AB865E"/>
<stop offset="0.755" stop-color="#9A7C48"/>
<stop offset="0.912967" stop-color="#C18F59"/>
<stop offset="1" stop-color="#997538"/>
</linearGradient>
<linearGradient id="paint29_linear_2_1855" x1="106.59" y1="67.6634" x2="122.666" y2="67.6634" gradientUnits="userSpaceOnUse">
<stop stop-color="#C89752"/>
<stop offset="0.066468" stop-color="#C09B68"/>
<stop offset="0.125" stop-color="#EED9B7"/>
<stop offset="0.306859" stop-color="#F1C592"/>
<stop offset="0.493535" stop-color="#B48256"/>
<stop offset="0.654363" stop-color="#AB865E"/>
<stop offset="0.755" stop-color="#9A7C48"/>
<stop offset="0.912967" stop-color="#C18F59"/>
<stop offset="1" stop-color="#997538"/>
</linearGradient>
<linearGradient id="paint30_linear_2_1855" x1="100.81" y1="76.1462" x2="120.354" y2="76.1462" gradientUnits="userSpaceOnUse">
<stop stop-color="#C89752"/>
<stop offset="0.066468" stop-color="#C09B68"/>
<stop offset="0.125" stop-color="#EED9B7"/>
<stop offset="0.306859" stop-color="#F1C592"/>
<stop offset="0.493535" stop-color="#B48256"/>
<stop offset="0.654363" stop-color="#AB865E"/>
<stop offset="0.755" stop-color="#9A7C48"/>
<stop offset="0.912967" stop-color="#C18F59"/>
<stop offset="1" stop-color="#997538"/>
</linearGradient>
<linearGradient id="paint31_linear_2_1855" x1="84.749" y1="70.1153" x2="100.126" y2="70.1153" gradientUnits="userSpaceOnUse">
<stop stop-color="#C89752"/>
<stop offset="0.066468" stop-color="#C09B68"/>
<stop offset="0.125" stop-color="#EED9B7"/>
<stop offset="0.306859" stop-color="#F1C592"/>
<stop offset="0.493535" stop-color="#B48256"/>
<stop offset="0.654363" stop-color="#AB865E"/>
<stop offset="0.755" stop-color="#9A7C48"/>
<stop offset="0.912967" stop-color="#C18F59"/>
<stop offset="1" stop-color="#997538"/>
</linearGradient>
<linearGradient id="paint32_linear_2_1855" x1="30.8818" y1="27.293" x2="44.414" y2="27.293" gradientUnits="userSpaceOnUse">
<stop stop-color="#C89752"/>
<stop offset="0.066468" stop-color="#C09B68"/>
<stop offset="0.125" stop-color="#EED9B7"/>
<stop offset="0.306859" stop-color="#F1C592"/>
<stop offset="0.493535" stop-color="#B48256"/>
<stop offset="0.654363" stop-color="#AB865E"/>
<stop offset="0.755" stop-color="#9A7C48"/>
<stop offset="0.912967" stop-color="#C18F59"/>
<stop offset="1" stop-color="#997538"/>
</linearGradient>
<linearGradient id="paint33_linear_2_1855" x1="82.2197" y1="27.2933" x2="95.7517" y2="27.2933" gradientUnits="userSpaceOnUse">
<stop stop-color="#C89752"/>
<stop offset="0.066468" stop-color="#C09B68"/>
<stop offset="0.125" stop-color="#EED9B7"/>
<stop offset="0.306859" stop-color="#F1C592"/>
<stop offset="0.493535" stop-color="#B48256"/>
<stop offset="0.654363" stop-color="#AB865E"/>
<stop offset="0.755" stop-color="#9A7C48"/>
<stop offset="0.912967" stop-color="#C18F59"/>
<stop offset="1" stop-color="#997538"/>
</linearGradient>
<linearGradient id="paint34_linear_2_1855" x1="63.999" y1="49.0861" x2="64.6129" y2="49.0861" gradientUnits="userSpaceOnUse">
<stop stop-color="#C89752"/>
<stop offset="0.066468" stop-color="#C09B68"/>
<stop offset="0.125" stop-color="#EED9B7"/>
<stop offset="0.306859" stop-color="#F1C592"/>
<stop offset="0.493535" stop-color="#B48256"/>
<stop offset="0.654363" stop-color="#AB865E"/>
<stop offset="0.755" stop-color="#9A7C48"/>
<stop offset="0.912967" stop-color="#C18F59"/>
<stop offset="1" stop-color="#997538"/>
</linearGradient>
<linearGradient id="paint35_linear_2_1855" x1="25.8486" y1="92.8252" x2="156.023" y2="92.9874" gradientUnits="userSpaceOnUse">
<stop stop-color="#C89752"/>
<stop offset="0.066468" stop-color="#C09B68"/>
<stop offset="0.125" stop-color="#EED9B7"/>
<stop offset="0.306859" stop-color="#F1C592"/>
<stop offset="0.493535" stop-color="#B48256"/>
<stop offset="0.654363" stop-color="#AB865E"/>
<stop offset="0.755" stop-color="#9A7C48"/>
<stop offset="0.912967" stop-color="#C18F59"/>
<stop offset="1" stop-color="#997538"/>
</linearGradient>
<linearGradient id="paint36_linear_2_1855" x1="47.8654" y1="46.6617" x2="116.615" y2="55.6262" gradientUnits="userSpaceOnUse">
<stop stop-color="#C69E66"/>
<stop offset="0.306859" stop-color="#E1AC5C"/>
<stop offset="0.654363" stop-color="#B68044"/>
<stop offset="0.912967" stop-color="#C28849"/>
<stop offset="1" stop-color="#A07A38"/>
</linearGradient>
<linearGradient id="paint37_linear_2_1855" x1="47.8654" y1="46.6617" x2="116.615" y2="55.6262" gradientUnits="userSpaceOnUse">
<stop stop-color="#C69E66"/>
<stop offset="0.306859" stop-color="#E1AC5C"/>
<stop offset="0.654363" stop-color="#B68044"/>
<stop offset="0.912967" stop-color="#C28849"/>
<stop offset="1" stop-color="#A07A38"/>
</linearGradient>
</defs>
</svg>
